<svg data-name="Layer 1" xmlns="http://www.w3.org/2000/svg" viewBox="0 0 477 174.62"><path fill="#ed0000" d="M10.33 19.53h34.25v133.05H10.33z"/><path d="M58.4 19.53v133.05h102.94v-28.25h-68.7V97.92h68.7V70.95h-68.7V46.51h68.7V19.53H58.4zm116.76 0v133.05h97.48v-29.39H209.4V19.53h-34.24zm108.93 26.98v106.07h34.24V46.51h38.58V19.53h-111.4v26.98h38.58zm80.52-5.69c-4.59 10.82-5.67 22.47.16 33.08 4.47 8.11 14.92 16.87 23.68 19.86 10.17 3.47 20.58 6.69 30.84 10 6.79 2.14 18.69 4.32 19.58 13.06 1.05 10.27-9.76 13.38-17.86 14.19-17 1.68-29.31-3.63-29.34-22.43l-33.38-.11a69.89 69.89 0 0 0 3.46 18.92c8.24 23.17 29.1 30 51.84 29.33 24.29-.69 53.3-7 57.88-35.26 3.14-21.21-7.82-35.13-26.74-43l-31.35-11c-3.78-1.33-8.27-2.71-11.9-4.25-4.06-1.8-7.1-4.73-7.28-9.4-.35-9.11 8.41-11.61 15.81-12 13.23-.76 24.65 2.78 24.56 18h32.24c.19-19.41-7.61-33.36-26.26-40.19-8.41-3.08-20.88-4.87-29.77-4.52-19.46.74-37.78 6.57-46.17 25.72z" fill="#ed0000" fill-rule="evenodd"/></svg>