<svg id="Layer_1" data-name="Layer 1" xmlns="http://www.w3.org/2000/svg" viewBox="0 0 477 174.62"><defs><style>.cls-1,.cls-2{fill:none;stroke-miterlimit:10;stroke-width:0.34px;}.cls-1{stroke:#fd0;}.cls-2{stroke:#171614;}.cls-3{fill:#241f0c;}.cls-4{fill:#fff;}.cls-5{fill:#e63329;}.cls-6{fill:#fd0;}.cls-7{fill:#1d1d1b;}</style></defs><title>logo</title><path class="cls-1" d="M65.48,99.28A35.5,35.5,0,0,1,64,108.43a22.67,22.67,0,0,1-3.49,6.9,24.45,24.45,0,0,1-8.39,6.73c-.2.1-1.52.78-7.9,4V99.28H65.46"/><path class="cls-1" d="M27.93,99.28V126c-6.37-3.18-7.71-3.85-7.9-4a24.44,24.44,0,0,1-8.4-6.73,22.53,22.53,0,0,1-3.48-6.9,35.41,35.41,0,0,1-1.48-9.14H27.93"/><path class="cls-2" d="M65.52,61.18H44.22V83h21.3V61.18Z"/><path class="cls-2" d="M27.93,61.18H6.63V83h21.3Z"/><path class="cls-3" d="M36.08,133.4l-.65-.35c-1-.47-15.92-7.91-16.81-8.4C13.76,122,3.67,116.53,3.67,97.31V58.23H68.48V97.31c0,19.22-10.09,24.7-14.94,27.34-.89.48-16,8-16.82,8.4Z"/><path class="cls-4" d="M42.67,84.54V59.63H29.48V84.54H5.08V97.31h0v.41h24.4v30.8l6.59,3.26h0l6.59-3.26V97.73H67.07V84.54Z"/><rect class="cls-5" x="5.08" y="59.63" width="24.41" height="24.91"/><rect class="cls-5" x="42.67" y="59.63" width="24.41" height="24.91"/><path class="cls-5" d="M29.48,97.73H5.08c.14,17.85,9.29,23,14.2,25.7.5.27,5.71,2.87,10.2,5.1Z"/><path class="cls-5" d="M42.67,97.73v30.8c4.49-2.24,9.7-4.84,10.2-5.11,4.89-2.67,14.07-7.84,14.21-25.7Z"/><path class="cls-3" d="M51.05,91.32l.51-.59L51,90l-.64.76.5.59c0,.31,0,3-1.53,3.9a3.65,3.65,0,0,0,1.19,0A7.66,7.66,0,0,0,51,96.65a8.48,8.48,0,0,0,.42-1.47,3.57,3.57,0,0,0,1.22,0C51,94.27,51.05,91.63,51.05,91.32Z"/><path class="cls-3" d="M55,86.84l.51-.6-.64-.76-.64.76.5.6c0,.3,0,2.94-1.53,3.88a3.57,3.57,0,0,0,1.22,0,7.57,7.57,0,0,0,.45,1.47,8.29,8.29,0,0,0,.44-1.47,3.57,3.57,0,0,0,1.22,0C55,89.78,55,87.14,55,86.84Z"/><path class="cls-3" d="M59,91.32l.51-.59L58.87,90l-.63.76.5.59c0,.31,0,3-1.53,3.9a3.85,3.85,0,0,0,1.22,0,8.4,8.4,0,0,0,.44,1.48,7.66,7.66,0,0,0,.45-1.48,3.84,3.84,0,0,0,1.22,0C59,94.27,59,91.63,59,91.32Z"/><path class="cls-3" d="M63,86.84l.51-.6-.64-.76-.64.76.51.6c0,.3,0,2.94-1.53,3.88a3.52,3.52,0,0,0,1.21,0,7.57,7.57,0,0,0,.45,1.47,7.57,7.57,0,0,0,.45-1.47,3.52,3.52,0,0,0,1.21,0C63,89.78,63,87.14,63,86.84Z"/><path class="cls-3" d="M47.08,86.84l.5-.6L47,85.48l-.64.76.51.6c0,.3,0,2.94-1.54,3.88a3.57,3.57,0,0,0,1.22,0A7.57,7.57,0,0,0,47,92.16a8.29,8.29,0,0,0,.44-1.47,3.57,3.57,0,0,0,1.22,0C47.05,89.78,47.07,87.14,47.08,86.84Z"/><path class="cls-3" d="M13.42,91.32l.5-.59L13.29,90l-.64.76.5.59c0,.31,0,3-1.53,3.9a3.77,3.77,0,0,0,1.21,0,7.78,7.78,0,0,0,.45,1.47,7.78,7.78,0,0,0,.45-1.47,3.57,3.57,0,0,0,1.22,0C13.39,94.27,13.4,91.63,13.42,91.32Z"/><path class="cls-3" d="M17.39,86.84l.5-.6-.63-.76-.64.76.51.6c0,.3,0,2.94-1.54,3.88a3.57,3.57,0,0,0,1.22,0,7.66,7.66,0,0,0,.45,1.48,8.4,8.4,0,0,0,.44-1.48,3.34,3.34,0,0,0,1.22,0C17.36,89.78,17.38,87.14,17.39,86.84Z"/><path class="cls-3" d="M21.37,91.32l.5-.59L21.23,90l-.63.76.5.59c0,.31,0,3-1.53,3.9a3.77,3.77,0,0,0,1.21,0,7.78,7.78,0,0,0,.45,1.47,7.57,7.57,0,0,0,.45-1.47,3.57,3.57,0,0,0,1.22,0C21.34,94.27,21.36,91.63,21.37,91.32Z"/><path class="cls-3" d="M25.34,86.84l.5-.6-.63-.76-.64.76.51.6c0,.3,0,2.94-1.54,3.88a3.57,3.57,0,0,0,1.22,0,7.57,7.57,0,0,0,.45,1.47,8.29,8.29,0,0,0,.44-1.47,3.57,3.57,0,0,0,1.22,0C25.32,89.78,25.33,87.14,25.34,86.84Z"/><path class="cls-3" d="M9.44,86.84l.5-.6-.63-.76-.64.76.51.6c0,.3,0,2.94-1.53,3.88a3.52,3.52,0,0,0,1.21,0,7.57,7.57,0,0,0,.45,1.47,7.54,7.54,0,0,0,.44-1.47,3.57,3.57,0,0,0,1.22,0C9.41,89.78,9.43,87.14,9.44,86.84Z"/><path class="cls-3" d="M36.24,101.44l.51-.6-.64-.77-.64.75.51.6c0,.3,0,3-1.54,3.89a3.57,3.57,0,0,0,1.22,0,7.66,7.66,0,0,0,.45,1.48,8.4,8.4,0,0,0,.44-1.48,3.57,3.57,0,0,0,1.22,0C36.21,104.41,36.23,101.74,36.24,101.44Z"/><path class="cls-3" d="M36.24,114.94l.51-.6-.64-.75-.63.75.5.6c0,.3,0,2.94-1.53,3.89a3.57,3.57,0,0,0,1.22,0,7.08,7.08,0,0,0,.44,1.47,7.78,7.78,0,0,0,.45-1.47,3.52,3.52,0,0,0,1.21,0C36.21,117.88,36.23,115.24,36.24,114.94Z"/><path class="cls-3" d="M39.93,108.22l.5-.6-.63-.76-.65.73.51.6c0,.3,0,3-1.53,3.89a3.51,3.51,0,0,0,1.21-.06,7.36,7.36,0,0,0,.45,1.47,7.36,7.36,0,0,0,.45-1.47,3.57,3.57,0,0,0,1.22,0C39.9,111.14,39.92,108.49,39.93,108.22Z"/><path class="cls-3" d="M32.51,108.22l.51-.6-.64-.76-.63.76.5.6c0,.3,0,2.94-1.53,3.89a3.52,3.52,0,0,0,1.21-.09,8.05,8.05,0,0,0,.44,1.47,7.38,7.38,0,0,0,.46-1.47,3.57,3.57,0,0,0,1.22,0C32.47,111.14,32.5,108.49,32.51,108.22Z"/><path class="cls-3" d="M39.93,121.69l.5-.6-.63-.76-.64.76.51.6c0,.3,0,2.94-1.54,3.89a3.57,3.57,0,0,0,1.22,0A7.78,7.78,0,0,0,39.8,127a8.55,8.55,0,0,0,.44-1.47,3.57,3.57,0,0,0,1.22,0C39.9,124.63,39.92,122,39.93,121.69Z"/><path class="cls-3" d="M32.51,121.69l.51-.6-.64-.76-.63.76.5.6c0,.3,0,2.94-1.53,3.89a3.57,3.57,0,0,0,1.22,0,8.55,8.55,0,0,0,.44,1.47,7.78,7.78,0,0,0,.45-1.47,3.57,3.57,0,0,0,1.22,0C32.47,124.63,32.5,122,32.51,121.69Z"/><path class="cls-3" d="M36.24,70.73l.51-.6-.64-.76-.63.76.5.6c0,.3,0,2.94-1.53,3.89a3.34,3.34,0,0,0,1.22,0,7,7,0,0,0,.44,1.48,7.66,7.66,0,0,0,.45-1.48,3.29,3.29,0,0,0,1.21,0C36.21,73.65,36.23,71,36.24,70.73Z"/><path class="cls-3" d="M39.93,64l.5-.6-.63-.78-.65.78.51.6c0,.3,0,2.94-1.53,3.89a3.29,3.29,0,0,0,1.21,0,7.66,7.66,0,0,0,.45,1.48,7.66,7.66,0,0,0,.45-1.48,3.29,3.29,0,0,0,1.21,0C39.9,66.92,39.92,64.25,39.93,64Z"/><path class="cls-3" d="M32.51,64l.5-.6-.63-.78-.64.78.51.6c0,.3,0,2.94-1.53,3.89a3.78,3.78,0,0,0,1.21,0,8.29,8.29,0,0,0,.44,1.47,7.57,7.57,0,0,0,.45-1.47,3.57,3.57,0,0,0,1.22,0C32.47,66.92,32.5,64.25,32.51,64Z"/><path class="cls-3" d="M39.93,77.45l.5-.59-.63-.76-.65.76.51.59c0,.31,0,3-1.53,3.89a3.52,3.52,0,0,0,1.21,0,7.36,7.36,0,0,0,.45,1.47,7.36,7.36,0,0,0,.45-1.47,3.52,3.52,0,0,0,1.21,0C39.9,80.4,39.92,77.76,39.93,77.45Z"/><path class="cls-3" d="M32.51,77.45l.51-.59-.64-.76-.63.76.5.59c0,.31,0,3-1.53,3.89a3.52,3.52,0,0,0,1.21,0,8.55,8.55,0,0,0,.44,1.47,7.78,7.78,0,0,0,.45-1.47,3.57,3.57,0,0,0,1.22,0C32.47,80.4,32.5,77.76,32.51,77.45Z"/><path class="cls-3" d="M24.21,71.93l.08.31c.08.27.13.5.17.66.26,1.18.48,1.49,1.06,1.49a.68.68,0,0,0,.68-.46l.13-.41a.18.18,0,0,1,.19-.15c.22,0,.33.23.34.75a8.79,8.79,0,0,0,.15,1,5.38,5.38,0,0,1,.08.9,1.54,1.54,0,0,1-.13.67A10.71,10.71,0,0,1,27.09,78a2.74,2.74,0,0,1-.25,1.23A2.85,2.85,0,0,1,27,80a3.94,3.94,0,0,1-.07.69,6,6,0,0,0-.11.72.87.87,0,0,0,.05.28,1,1,0,0,1,.06.25c0,.06,0,.1-.06.1l-.41-.17L26,81.59a2.07,2.07,0,0,1-.47-.37c-.4.37-.55.42-1.57.7a1.54,1.54,0,0,0-.46.19.57.57,0,0,1-.28.14c-.17,0-.26-.29-.26-.87A5,5,0,0,1,23,80.22,2.43,2.43,0,0,0,22.3,80l-.32,0h-.07c-.06,0-.11-.1-.11-.2a1.66,1.66,0,0,1,.12-.45l.23-.5a1.78,1.78,0,0,1,.49-.6,1.43,1.43,0,0,1,.55-.31l.74-.14c.44-.09.71-.32.71-.63s-.21-.5-.65-.66l-.89-.31a4,4,0,0,1-.81-.39c-.5-.3-.58-.33-.7-.33a.34.34,0,0,0-.28.37.58.58,0,0,0,.52.62h.08a.45.45,0,0,0,.2,0,.57.57,0,0,1,.22-.07.13.13,0,0,1,.14.12s0,0,0,0v.1l0,.36a2.82,2.82,0,0,1-.66,1.24l-.19.25a2.84,2.84,0,0,1-1.12,1.63l-.23.16-.16.29a2.86,2.86,0,0,1-.42.5,4,4,0,0,1-.54.47,2.1,2.1,0,0,0-.41.38l-.21.35a.23.23,0,0,1-.17.11c-.18,0-.35-.19-.45-.55s-.15-.31-.3-.31a1.44,1.44,0,0,0-.36.07l-.29,0h-.75A3.2,3.2,0,0,0,15,81.9a.47.47,0,0,1-.21.06c-.05,0-.08,0-.13-.12a.34.34,0,0,1,0-.17A4,4,0,0,1,15.27,80a2,2,0,0,1,.54-.66.91.91,0,0,0-.57-.7l-.36-.11a.11.11,0,0,1-.08-.1c0-.1.17-.25.48-.41a2.7,2.7,0,0,1,1.14-.34,1.71,1.71,0,0,1,1,.44c.54.44.71.54,1,.54a.9.9,0,0,0,.87-.83,1.93,1.93,0,0,0-.55-1.09A2.65,2.65,0,0,1,18,75.07a2.15,2.15,0,0,1,.23-1l.21-.31a.48.48,0,0,0,.07-.2c0-.15-.16-.24-.38-.24a3.45,3.45,0,0,0-1.45.54c-.25.15-.42.33-.42.44a.19.19,0,0,0,.09.16l.22.14a.12.12,0,0,1,.05.09.42.42,0,0,1-.09.16l-.41.55a6.79,6.79,0,0,1-.87.91,1,1,0,0,0-.21.21l-.16.31a3.29,3.29,0,0,1-.9.92,1.63,1.63,0,0,0-.29.23,1,1,0,0,0-.16.29c-.09.15-.18.29-.28.43a4.34,4.34,0,0,1-.49.64l-.59.58a3.42,3.42,0,0,0-.58,1.29c-.14.45-.28.72-.35.72s-.09,0-.16-.12c-.41-.47-.77-.75-1-.75a.57.57,0,0,0-.22.11,1.52,1.52,0,0,1-.55.2l-.76.15a1.6,1.6,0,0,0-1.13.61c-.08.09-.15.14-.18.14s-.11-.1-.11-.24v-.19l.1-.54A4.79,4.79,0,0,1,7.71,80l.34-.64A.81.81,0,0,0,8.16,79a1.13,1.13,0,0,0-1.09-1c-.15,0-.21,0-.21-.14a1,1,0,0,1,.39-.48,2.54,2.54,0,0,1,1.31-.54,2.8,2.8,0,0,1,.93.25l.45.18a1.29,1.29,0,0,0,.47.11c.48,0,.95-.44,1.52-1.43a2.12,2.12,0,0,0,.37-1.09c0-.54-.25-.84-.66-.84a1.32,1.32,0,0,0-.89.39.94.94,0,0,0-.32.64v.29c0,.19-.07.29-.18.29s-.48-.27-1.3-1.26a2.46,2.46,0,0,1-.76-1.78,2.59,2.59,0,0,1-.87-1.88V70.3a2,2,0,0,1-.62-1.44,1.08,1.08,0,0,1,.15-.55,2,2,0,0,1-.39-.8l-.07-.42a2.12,2.12,0,0,0-.33-.77c-.21-.27-.21-.3-.21-.39,0-.24.16-.34.89-.52a3.44,3.44,0,0,1,0-.45,2.74,2.74,0,0,1,.07-.5l.17-.76A3.73,3.73,0,0,0,7,63a2.18,2.18,0,0,0-.15-.66,2.11,2.11,0,0,0-.19-.47.74.74,0,0,1-.12-.29c0-.07.05-.11.14-.11A3.49,3.49,0,0,1,8,62.29c1.19,1,1.44,1.37,1.59,2.56,0,.09,0,.23.06.42a1.83,1.83,0,0,1,.87,1.47,2.57,2.57,0,0,1-.41,1.32l-.43.64a1.26,1.26,0,0,0-.18.68,2.36,2.36,0,0,0,.39,1.24c.31.55.58.79.92.79.54,0,1-1,1-2v-.54c0-.23,0-.45,0-.68s.06-.54.06-.6v-.82a.57.57,0,0,0-.21-.4l-.39-.47a3.22,3.22,0,0,1-1-1.9,1,1,0,0,1,1-1.08h0a1.32,1.32,0,0,1,.44.08v-.16c0-.91.19-1.59.44-1.59l.1,0,.38.33.45.29.13.12c0-.26,0-.28.27-.58.06-.07.16-.2.29-.39s.17-.26.2-.31l.11-.19c.05-.1.11-.15.17-.15s.1.08.17.3.09.18.44.49a1.61,1.61,0,0,1,.24.28,2.09,2.09,0,0,1,.17.41l.06.17a1.35,1.35,0,0,1,.41-.38l.31-.16a.7.7,0,0,1,.23-.11.35.35,0,0,1,.11.13,3.18,3.18,0,0,0,.16.31,1.54,1.54,0,0,1,.29.75V63a1.16,1.16,0,0,1,.92,1.27A2.93,2.93,0,0,1,17,66.05c-.35.43-.4.51-.4.81,0,1.53,1.09,2.42,2.94,2.44h1.39a6.85,6.85,0,0,1,2.25.37,5.6,5.6,0,0,0,1.56.4A.41.41,0,0,0,25,70a.26.26,0,0,0,.13-.18c0-.29-.51-.55-2.17-1-3.42-1-4.87-2.34-4.87-4.6a3.18,3.18,0,0,1,3.26-3.1h.09a7.36,7.36,0,0,1,2.08.39l.84.31a1.8,1.8,0,0,0,.45.09c.29,0,.43-.24.44-.73,0-.26.07-.36.24-.36a1.92,1.92,0,0,1,.94.77A2.59,2.59,0,0,1,27,62.93,1.19,1.19,0,0,1,26.24,64a2,2,0,0,1-1.81,1,6.78,6.78,0,0,1-2.85-1.14,2,2,0,0,0-1-.37A.55.55,0,0,0,20,64v.07c0,.3.24.49.84.7a2.9,2.9,0,0,1,1.47.81,4.11,4.11,0,0,1,2.17.87c1.82.57,2.94,1.81,2.94,3.26a2.24,2.24,0,0,1-2.07,2.37h-.16a4.62,4.62,0,0,1-1-.13"/><path class="cls-6" d="M26.26,81a2.74,2.74,0,0,1-.08-.5v-.16l.06-.33v-.27a1,1,0,0,0-.14-.62l-.25-.33a1.53,1.53,0,0,1-.21-.4.47.47,0,0,1,0-.17.13.13,0,0,1,.13-.15h0c.05,0,.07,0,.26.12a.48.48,0,0,0,.21.07c.12,0,.19-.2.19-.55a1.27,1.27,0,0,0-.13-.72L26,76.63l-.27-.23a.29.29,0,0,1-.1-.18.15.15,0,0,1,.15-.15h0a1.4,1.4,0,0,1,.45.1h.1c.08,0,.12,0,.12-.17v-.06l-.06-.43-.1-.44c0-.14-.06-.17-.15-.17H26l-.51.11h-.09a1.86,1.86,0,0,1-1.63-1.29l-.35-1.36a2.83,2.83,0,0,0-1-1.27.91.91,0,0,0-.41-.22l-.38-.05c-.05,0-.1,0-.11-.09s.08-.13.26-.13l.68.06a5.43,5.43,0,0,1,1.12.29,4.12,4.12,0,0,0,1.39.3,1.42,1.42,0,0,0,1.63-1.49,2.61,2.61,0,0,0-.85-1.83,1.79,1.79,0,0,0-.66-.46.1.1,0,0,0-.1.1v.27h0c0,.1-.06.19-.14.19s-.23-.14-.36-.42a2,2,0,0,0-1.63-1.3c-.11,0-.19,0-.19.11a1.32,1.32,0,0,0,.1.3l.17.37a.6.6,0,0,1,.06.19.09.09,0,0,1-.08,0,.6.6,0,0,1-.36-.19l-.31-.33L22,66.38a1.87,1.87,0,0,0-.85-.72l-.49-.27a.5.5,0,0,0-.26-.08.08.08,0,0,0-.1.08h0a.37.37,0,0,0,.08.22,1.07,1.07,0,0,1,.21.41.13.13,0,0,1-.11.12c-.16,0-.49-.32-.79-.76a2.06,2.06,0,0,1-.37-1.17,1.49,1.49,0,0,1,1.49-1.48h0a3.21,3.21,0,0,1,1.56.54l1,.61a2.52,2.52,0,0,0,1.13.37,3.11,3.11,0,0,0,.61-.1,1.12,1.12,0,0,0,.25-.11c.06,0,.1-.08.1-.11a.1.1,0,0,0-.06-.09l-.13-.05-.45-.08a3.62,3.62,0,0,1-.55-.2c-.35-.17-.7-.35-1-.55a4.33,4.33,0,0,0-.7-.39c-.16-.06-.27-.13-.27-.2s0-.09.07-.09h0a.4.4,0,0,1,.23.08,1.61,1.61,0,0,0,.76.29l.89.31a6,6,0,0,0,1.38.29.69.69,0,0,0,.7-.66v0h0a1.77,1.77,0,0,0-.36-.91c-.05-.07-.1-.1-.14-.1a.15.15,0,0,0-.13.16v.17l0,.25a.44.44,0,0,1-.41.47.87.87,0,0,1-.32-.06l-1.34-.44a7.34,7.34,0,0,0-2.22-.47,2.62,2.62,0,0,0-2.83,2.56c0,1.63,1.16,2.71,4,3.69s3.21,1.2,3.21,1.92a.88.88,0,0,1-.89.79,2.83,2.83,0,0,1-.5,0L23,70.23a10.69,10.69,0,0,0-2.58-.29c-2,0-3.16.35-4.13,1.3a.65.65,0,0,1-.6.27h-.47a.66.66,0,0,0-.58.38l-.35.54a.32.32,0,0,1-.24.13c-.18,0-.3-.14-.5-.64a1.75,1.75,0,0,0-.44-.63l-.41-.37a.27.27,0,0,1-.1-.16.41.41,0,0,1,.08-.19A1.66,1.66,0,0,0,13,70c0-.28.06-.29.17-.29s.16.12.17.6a1.42,1.42,0,0,0,.17.54l.23.5a.23.23,0,0,0,.19.1c.21,0,.48-.5.54-1s.11-.58.19-.58a.14.14,0,0,1,.1,0s.08.15.18.37a1,1,0,0,0,.27.3.73.73,0,0,0,.25.15h0c.17,0,.23-.11.27-.5V70l0-.3,0-.2c0-.13,0-.21.12-.21a.2.2,0,0,1,.15.08l.21.21a.58.58,0,0,0,.41.2c.17,0,.28-.07.28-.18a1.18,1.18,0,0,0-.19-.48l-.15-.27c-.17-.31-.3-.43-.45-.43H15.8l-.24.1a.34.34,0,0,1-.17,0s-.06,0-.06-.08a2,2,0,0,1,.35-.84A4.17,4.17,0,0,0,16,66.05c.07-1.09.22-1.78.37-1.78s.14.08.14.32v.47c0,.2,0,.35.09.35s.39-.26.54-.69a1.24,1.24,0,0,0,.11-.42v-.09l-.41-.77-.41-.13a.19.19,0,0,1-.15-.09v-.45l0-.25-.08-.21-.1-.23a2.29,2.29,0,0,0-.83.62c-.16.22-.25.3-.34.3a.11.11,0,0,1-.09-.11,1.15,1.15,0,0,1,.11-.31v-.12a1.43,1.43,0,0,0-.7-1.19l-.13.16-.14.21-.25.29a1.44,1.44,0,0,0-.21.41,2,2,0,0,0,0,.24v.1c0,.18,0,.22-.09.22h0l-.15-.2-.25-.27-.35-.22-.19-.15-.08.18a1,1,0,0,0-.11.34v.73c0,.18,0,.25-.15.25a.67.67,0,0,1-.21-.1.75.75,0,0,0-.3-.09.55.55,0,0,0-.54.55h0A1.79,1.79,0,0,0,11.31,65l.27.36c.08.09.21.17.22.12l0-.43-.06-.33v-.16c0-.13,0-.21.12-.21s.19.13.26.48l.16.76.17,1a4.68,4.68,0,0,0,.25.83,4,4,0,0,0,.36.72c.22.3.25.34.25.4a.1.1,0,0,1-.09.1.32.32,0,0,1-.18-.06,1,1,0,0,0-.25-.08h-.16c-.33,0-.41.28-.41,1.67a8.75,8.75,0,0,0,.4,2.54l.44,1.08a1.54,1.54,0,0,1,.1.51c0,1.51-2,3.88-4.2,5a1.72,1.72,0,0,0-1.14,1.69v.27A3.38,3.38,0,0,1,8.56,81c.62-.16.74-.24.83-.54l.09-.27c0-.11.08-.14.54-.39a1,1,0,0,0,.33-.27c.1-.17.19-.27.25-.27s.08,0,.08.07v.07l-.23.61v.15a1.14,1.14,0,0,0,.62.94,1.79,1.79,0,0,1,.28-.87l.37-.58a1.61,1.61,0,0,0,.19-.89,4.6,4.6,0,0,0-.05-.64V77.9a.14.14,0,0,1,.15-.16c.09,0,.13,0,.13.06l.09.39a.18.18,0,0,0,.2.14c.2,0,.45-.26.72-.72a1,1,0,0,0,.16-.54l0-.29-.06-.31v0c0-.14.08-.23.19-.23s.09,0,.09,0l.13.48a.3.3,0,0,0,.26.27c.14,0,.38-.23.55-.54a1.74,1.74,0,0,0,.14-.81c0-.44,0-.55.21-.55s.09,0,.1.05l.08.27c0,.1.1.17.15.17a1.39,1.39,0,0,0,.47-.55.4.4,0,0,0,.07-.19.39.39,0,0,0-.19-.29.45.45,0,0,1-.22-.48,1.16,1.16,0,0,1,.22-.72c.1-.18.19-.34.27-.5.26-.51.35-.64.45-.64a.17.17,0,0,1,.15.18.33.33,0,0,1,0,.17.73.73,0,0,0-.08.25.15.15,0,0,0,.15.14.74.74,0,0,0,.36-.12,4.12,4.12,0,0,1,.58-.23l.69-.22a1.14,1.14,0,0,1,.41-.07,2.33,2.33,0,0,1,.37,0,1.86,1.86,0,0,0,.48.09.35.35,0,0,0,.35-.34,1.24,1.24,0,0,0-.33-.63.37.37,0,0,1-.11-.19v-.08a.12.12,0,0,1,.11-.08c.14,0,.46.34.76.81,1.78,2.8,2.42,3.48,3.62,3.84s1.53.66,1.53,1.38a2.7,2.7,0,0,1-.65,1.47c-.9,1.27-1.12,1.78-1.12,2.61v.15l.23-.1a2.41,2.41,0,0,1,.33-.15l.55-.1a.47.47,0,0,0,.29-.43v-.07l-.06-.46v0a.6.6,0,0,1,.19-.44.15.15,0,0,1,.11,0,.2.2,0,0,1,.16.13l.33.7a1.21,1.21,0,0,0,.73.62"/><path class="cls-6" d="M9.58,66c-.15,0-.23.13-.24.42l0,.39a2.73,2.73,0,0,0-.05.5c0,.29.09.51.2.51s.34-.25.44-.54a1.15,1.15,0,0,0,.1-.48,1.52,1.52,0,0,0-.1-.47c-.07-.21-.19-.33-.31-.33"/><path class="cls-6" d="M7.87,63l.29.29a3.28,3.28,0,0,1,.7,2.37,10,10,0,0,1-.06,1.09c0,.34-.05.63-.05.85,0,2.56.84,4.5,1.94,4.5.35,0,.57-.16.9-.66a.33.33,0,0,1,.18-.15c.05,0,.1.06.11.17l0,.46.05.39,0,.43.06.4v0a.18.18,0,0,1-.14.19l-.37.07a1.46,1.46,0,0,0-.58.22,1.62,1.62,0,0,0-.55.42l-.23.47a.15.15,0,0,1-.13.1c-.12,0-.31-.21-.54-.58a2,2,0,0,1-.3-.67c0-.07,0-.09.17-.09h.66a.16.16,0,0,0,.12-.15.14.14,0,0,0-.08-.13l-.93-.39a1.49,1.49,0,0,1-.7-.68A2.67,2.67,0,0,1,8.09,71c0-.13.06-.21.16-.21a.33.33,0,0,1,.15,0,.79.79,0,0,0,.26.08.13.13,0,0,0,.15-.13.36.36,0,0,0-.16-.22,2.57,2.57,0,0,1-1.17-1.8c0-.16,0-.23.12-.23h.15l.26,0H8a.17.17,0,0,0,.18-.15h0c0-.05-.07-.13-.17-.19l-.33-.18a.92.92,0,0,1-.29-.3c0-.05-.15-.27-.35-.66l-.29-.54-.18-.35A1.09,1.09,0,0,0,6.46,66a1.37,1.37,0,0,1,.65-.2c.28,0,.46.18.66.68.13.32.26.54.34.54s.06-.07.06-.24a2.1,2.1,0,0,0-.09-.61A1.67,1.67,0,0,1,8,65.77l0-.29-.24-.12a.76.76,0,0,1-.19-.21.88.88,0,0,1-.16-.47,1.75,1.75,0,0,1,.09-.38A6.1,6.1,0,0,0,7.75,63v-.18Z"/><path class="cls-6" d="M10.35,77.89a2,2,0,0,1-.6-.15l-.39-.16a1.87,1.87,0,0,0-.8-.21,1.25,1.25,0,0,0-.86.35l.18.14.42.29.39.31a.55.55,0,0,0,.35.12,1.92,1.92,0,0,0,1.31-.7"/><path class="cls-6" d="M18.34,81.65a1.17,1.17,0,0,1,.42-.54c.57-.49.84-.86.84-1.16V79.5c0-.27,0-.36.19-.36a.12.12,0,0,1,.12.07l.11.24a.16.16,0,0,0,.17.1c.08,0,.2-.09.31-.24l.2-.29a.64.64,0,0,0,.11-.64l-.15-.33a.9.9,0,0,1-.09-.33.18.18,0,0,1,.19-.21.18.18,0,0,1,.14.06l.16.22a.24.24,0,0,0,.16.07.3.3,0,0,0,.22-.17l.16-.33a.6.6,0,0,0,.06-.19c0-.06-.06-.13-.19-.18l-.27-.13a1.49,1.49,0,0,1-.62-1.33.57.57,0,0,1,0-.22l.15-.35a1,1,0,0,0,.06-.33,1.12,1.12,0,0,0-.22-.64,3.53,3.53,0,0,1-.27-.44c-.12-.32-.19-.42-.29-.42H20l-.14.08-.23.13-.27.33-.29.14a1,1,0,0,0-.33.76c0,.55.06.69.77,1.92a2.51,2.51,0,0,1,.42,1.18c0,.85-.76,1.45-2.28,1.82l-.95.22a1.63,1.63,0,0,0-1.26,1.48,1.52,1.52,0,0,1,.89-.14h.35c.28,0,.31,0,.49-.27a1.57,1.57,0,0,1,.66-.59l.33-.15.27-.15h.09c.07,0,.11,0,.11.09a.73.73,0,0,1-.2.35,1.14,1.14,0,0,0-.33.8.74.74,0,0,0,.23.54"/><path class="cls-6" d="M15.71,78.45a2.14,2.14,0,0,1,.62.54c.19.27.23.29.42.29a1.54,1.54,0,0,0,.3,0l.19,0c.34-.07.45-.12.45-.2a.32.32,0,0,0-.1-.18l-.23-.2-.23-.21a1,1,0,0,0-.68-.23,1.27,1.27,0,0,0-.75.25"/><path class="cls-6" d="M22.41,79.56H23a.9.9,0,0,0,.9-.8c0-.14-.13-.22-.36-.22-.54,0-.91.32-1.13,1"/><path class="cls-3" d="M14.7,65.29c0,.19.12.35.22.35s.19-.23.4-.59a3.66,3.66,0,0,0,.58-1.25c0-.08,0-.15-.1-.15h0l-.23.21a1.93,1.93,0,0,1-.71.37c-.23.08-.32.18-.32.35v.17l.1.29Z"/><path class="cls-3" d="M13.45,64.21l.35.18a.21.21,0,0,1,.15.2v.16a1.62,1.62,0,0,0,0,.44.35.35,0,0,1-.33.37h-.08c-.07,0,0,0-.19-.23l-.44-.58a1.94,1.94,0,0,1-.31-.93v0c0-.12,0-.16.13-.16a.44.44,0,0,1,.22.1Z"/><path class="cls-3" d="M14.24,66.38h-.36l-.25-.15a.57.57,0,0,0-.29-.08c-.19,0-.31.1-.31.26a3,3,0,0,0,.27.92l.27.66c.24.58.47.83.77.83s.31-.27.49-.72c.42-1,.65-1.2.65-1.56s-.06-.32-.29-.32l-.19,0-.33.21Z"/><path class="cls-6" d="M14.22,66.92H14a.11.11,0,0,0-.1.06l0,.11.1.5L14,68c0,.24.13.33.31.33s.32-.14.35-.39l0-.46a2.49,2.49,0,0,1,0-.47.14.14,0,0,0-.06-.12.14.14,0,0,0-.1-.05h0Z"/><path class="cls-3" d="M62.82,71.93l.08.31.17.66c.26,1.18.48,1.49,1.05,1.49a.69.69,0,0,0,.69-.46l.12-.41a.19.19,0,0,1,.2-.15c.22,0,.34.24.36.75a8.72,8.72,0,0,0,.13,1,6,6,0,0,1,.08,1,1.54,1.54,0,0,1-.13.6l0,.25a4.78,4.78,0,0,1,.09.76,2.55,2.55,0,0,1-.25,1.49,2.65,2.65,0,0,1,.11.74,6,6,0,0,1-.07.73l-.08.62v.37a1,1,0,0,1,.08.25.09.09,0,0,1-.08.1h0L65,81.82l-.47-.23a1.71,1.71,0,0,1-.47-.37,1.78,1.78,0,0,1-.94.55,4.25,4.25,0,0,0-1.09.37.62.62,0,0,1-.28.14c-.16,0-.27-.31-.27-.76a3.33,3.33,0,0,1,.14-1.26,2.44,2.44,0,0,0-.75-.19l-.31,0h-.09c-.06,0-.09-.08-.09-.2a2.3,2.3,0,0,1,.33-.94,1.83,1.83,0,0,1,1-.91l.74-.15c.44-.08.71-.32.71-.63s-.2-.49-.65-.65l-.86-.31a5.73,5.73,0,0,1-.83-.39l-.46-.28a.44.44,0,0,0-.2,0c-.18,0-.3.13-.3.35a.63.63,0,0,0,.61.64.52.52,0,0,0,.21,0,.62.62,0,0,1,.19-.07c.09,0,.16.09.16.22A2.55,2.55,0,0,1,60.57,78l-.25.31-.18.25a2.75,2.75,0,0,1-1.09,1.63,1.24,1.24,0,0,0-.23.17,2.69,2.69,0,0,0-.16.29,3.8,3.8,0,0,1-.41.49,3.57,3.57,0,0,1-.55.48,2.05,2.05,0,0,0-.41.37l-.2.36a.19.19,0,0,1-.17.1c-.18,0-.35-.19-.45-.54s-.15-.31-.3-.31a1.51,1.51,0,0,0-.37.07l-.29,0h-.72a3.27,3.27,0,0,0-1.16.22.56.56,0,0,1-.21.06c-.11,0-.17-.11-.17-.31a3.84,3.84,0,0,1,1.17-2.3.9.9,0,0,0-.55-.7l-.37-.1a.11.11,0,0,1-.06-.1c0-.13.15-.26.48-.42A2.31,2.31,0,0,1,55,77.75a1.68,1.68,0,0,1,1.09.44c.54.43.72.54,1,.54a.91.91,0,0,0,.87-.83,1.88,1.88,0,0,0-.55-1.08,2.69,2.69,0,0,1-.74-1.76,2,2,0,0,1,.44-1.2.63.63,0,0,0,.08-.23c0-.11-.19-.21-.39-.21a2,2,0,0,0-.87.25c-.63.28-1,.54-1,.71a.27.27,0,0,0,.1.17l.21.15a.1.1,0,0,1,0,.09.35.35,0,0,1-.08.16l-.42.54a4.36,4.36,0,0,1-.86.91,1,1,0,0,0-.21.21l-.16.31a3.47,3.47,0,0,1-.92.87,2,2,0,0,0-.28.23,1.45,1.45,0,0,0-.19.29,5.44,5.44,0,0,1-.77,1.08l-.54.58a4.34,4.34,0,0,0-.6,1.29c-.17.5-.27.72-.35.72s-.09,0-.16-.12c-.4-.46-.76-.74-.94-.74a.51.51,0,0,0-.24.1,1.52,1.52,0,0,1-.55.2l-.74.17a1.61,1.61,0,0,0-1.2.58c-.07.09-.13.14-.16.14a.27.27,0,0,1-.12-.25v-.18l.1-.54A4.81,4.81,0,0,1,46.3,80l.38-.64a.64.64,0,0,0,.1-.33c0-.48-.44-.86-1.12-1-.13,0-.2-.07-.2-.15a1.07,1.07,0,0,1,.42-.47,2.34,2.34,0,0,1,1.26-.54,2.61,2.61,0,0,1,1,.24l.46.18a1,1,0,0,0,.46.11c.48,0,1-.44,1.53-1.43a2.09,2.09,0,0,0,.37-1.08c0-.55-.24-.84-.65-.84a1.28,1.28,0,0,0-.88.39,1,1,0,0,0-.34.64v.32c0,.17-.06.25-.18.25s-.34-.15-.7-.58l-.58-.68a2.43,2.43,0,0,1-.79-1.78,2.8,2.8,0,0,1-.86-1.87V70.3a1.86,1.86,0,0,1-.6-1.44.92.92,0,0,1,.13-.54,2.06,2.06,0,0,1-.39-.8l-.1-.43a2.3,2.3,0,0,0-.33-.77c-.19-.27-.21-.3-.21-.39s.21-.35.73-.48l.16,0a3.57,3.57,0,0,1,0-.46,2.63,2.63,0,0,1,.06-.49l.17-.76A4.1,4.1,0,0,0,45.6,63a2.09,2.09,0,0,0-.13-.65,1.63,1.63,0,0,0-.2-.47.57.57,0,0,1-.13-.27c0-.08.07-.13.17-.13a.48.48,0,0,1,.2.07,7.71,7.71,0,0,1,2,1.59,3.09,3.09,0,0,1,.72,2.11,1.78,1.78,0,0,1,.87,1.57,2.14,2.14,0,0,1-.42,1.22c-.26.39-.39.61-.41.64a1.38,1.38,0,0,0-.19.71,2.46,2.46,0,0,0,.4,1.22c.31.54.59.79.91.79.55,0,1-.94,1-2v-.76l.07-.5,0-.59,0-.5v-.28c0-.2,0-.26-.68-.95a3.21,3.21,0,0,1-1-2,1.07,1.07,0,0,1,1.06-1,1.64,1.64,0,0,1,.44.09v-.69l.12-.55c.1-.43.15-.5.3-.5l.1,0,.37.33.46.29.12.12a.86.86,0,0,1,.27-.58c.11-.13.2-.26.29-.39l.19-.31.12-.18c.08-.13.12-.16.17-.16s.1.07.16.3a.52.52,0,0,0,.19.27l.27.23A1.53,1.53,0,0,1,54,62a1.25,1.25,0,0,1,.42-.37l.35-.17a.62.62,0,0,1,.22-.1.27.27,0,0,1,.09.12,1.87,1.87,0,0,0,.17.31c.26.43.28.49.28.78V63a1.14,1.14,0,0,1,.94,1.29,2.88,2.88,0,0,1-.79,1.77c-.35.42-.41.54-.41.88,0,1.46,1.09,2.34,3,2.36h1.37a6.85,6.85,0,0,1,2.25.37,5.35,5.35,0,0,0,1.56.4c.21,0,.39-.12.39-.26,0-.3-.5-.54-2.18-1-3.4-1-4.86-2.34-4.86-4.59A3.18,3.18,0,0,1,60,61.13h.08a6.9,6.9,0,0,1,2.06.35l.85.31a1.64,1.64,0,0,0,.44.09c.29,0,.4-.19.45-.73,0-.25.09-.36.25-.36a2.06,2.06,0,0,1,.95.75,2.69,2.69,0,0,1,.55,1.38A1.19,1.19,0,0,1,64.89,64a2,2,0,0,1-1.81,1,7,7,0,0,1-2.85-1.14,1.86,1.86,0,0,0-1-.36.55.55,0,0,0-.61.46v.08c0,.3.23.48.84.7,1,.35,1.19.46,1.47.81a4.22,4.22,0,0,1,2.17.87c1.89.6,2.94,1.77,2.94,3.26a2.17,2.17,0,0,1-2,2.33h-.2a4.29,4.29,0,0,1-1-.12"/><path class="cls-6" d="M64.87,81a1.59,1.59,0,0,1-.07-.38v-.28a5.54,5.54,0,0,0,.07-.81.64.64,0,0,0-.16-.41l-.25-.33a.9.9,0,0,1-.22-.54c0-.12,0-.16.1-.16h.1l.19.1a.37.37,0,0,0,.2.07c.13,0,.19-.19.19-.58a1.09,1.09,0,0,0-.41-1l-.29-.23a.22.22,0,0,1-.09-.17.15.15,0,0,1,.13-.16h0a1,1,0,0,1,.24,0l.23.07h.08c.08,0,.11-.06.11-.18v-.06L65,75.51c-.07-.45-.14-.63-.27-.63h0l-.54.11H64a1.91,1.91,0,0,1-1.63-1.29l-.31-1.34a2.81,2.81,0,0,0-1-1.27.92.92,0,0,0-.44-.22l-.37-.05c-.05,0-.08,0-.09-.09s.07-.13.22-.13a6.06,6.06,0,0,1,1.84.35,4.33,4.33,0,0,0,1.38.31c1,0,1.63-.54,1.63-1.44a2.79,2.79,0,0,0-.4-1.37,3.51,3.51,0,0,0-1-.91.27.27,0,0,0-.17-.06.1.1,0,0,0-.1.1h0v.27h0c0,.1-.06.18-.13.18s-.23-.13-.36-.41a2,2,0,0,0-1.63-1.3c-.14,0-.22.05-.22.13a.54.54,0,0,0,.11.27,2.53,2.53,0,0,1,.18.37.41.41,0,0,1,0,.18s0,.06-.09.06a.55.55,0,0,1-.35-.2l-.31-.33-.26-.41a2.06,2.06,0,0,0-.83-.72l-.54-.27a.72.72,0,0,0-.27-.09.1.1,0,0,0-.1.08h0a.5.5,0,0,0,.09.24.91.91,0,0,1,.19.41.11.11,0,0,1-.1.13h0c-.15,0-.4-.26-.77-.77a2,2,0,0,1-.4-1.16,1.53,1.53,0,0,1,1.5-1.55h0a3.17,3.17,0,0,1,1.55.54l1,.61a2.6,2.6,0,0,0,1.14.37,1.91,1.91,0,0,0,.58-.1,1,1,0,0,0,.27-.11.14.14,0,0,0,.07-.11c0-.09-.05-.12-.18-.13a6,6,0,0,1-2-.8,5.26,5.26,0,0,0-.65-.38c-.17-.06-.28-.15-.28-.23s0-.05.08-.05h.12l.91.34.87.31a5.36,5.36,0,0,0,1.39.28.63.63,0,0,0,.66-.6h0v0a1.48,1.48,0,0,0-.13-.55c-.13-.25-.29-.45-.36-.45s-.12.08-.12.22v.37a.42.42,0,0,1-.4.47,1.3,1.3,0,0,1-.33-.07l-1.35-.43a6.51,6.51,0,0,0-2.17-.48,2.65,2.65,0,0,0-2.86,2.56c0,1.63,1.13,2.68,4,3.69s3.18,1.2,3.18,1.94a.83.83,0,0,1-.9.77h0a2.61,2.61,0,0,1-.48-.05l-1.41-.33A10.56,10.56,0,0,0,59.05,70c-2,0-3,.31-4.11,1.3a.73.73,0,0,1-.63.27h-.43a.66.66,0,0,0-.59.38l-.33.54a.26.26,0,0,1-.24.13c-.22,0-.32-.14-.54-.64a1.57,1.57,0,0,0-.41-.66l-.43-.38a.22.22,0,0,1-.11-.15.44.44,0,0,1,.11-.2,1.75,1.75,0,0,0,.18-.29.69.69,0,0,0,.1-.25v-.18a.14.14,0,0,1,.15-.1c.14,0,.16.09.16.6a1.48,1.48,0,0,0,.17.54l.23.5a.2.2,0,0,0,.18.1c.22,0,.49-.51.54-1s.11-.58.2-.58.12,0,.3.41a.84.84,0,0,0,.25.31.58.58,0,0,0,.25.15h0c.17,0,.23-.11.26-.5V70l0-.29,0-.2c0-.13,0-.21.13-.21a.19.19,0,0,1,.15.08l.21.21a.58.58,0,0,0,.42.2c.17,0,.28-.07.28-.2s0-.15-.2-.46l-.15-.27c-.18-.35-.27-.43-.43-.43h-.22l-.27.1-.16,0a.08.08,0,0,1-.07-.08,1.81,1.81,0,0,1,.36-.84A4.81,4.81,0,0,0,54.64,66l.11-1c.06-.59.12-.81.25-.81s.07,0,.08.05l.06.31v.25a1.11,1.11,0,0,0,.07.54c.09,0,.22-.1.34-.28a1.28,1.28,0,0,0,.29-.36,2.56,2.56,0,0,0,.1-.54c0-.48-.2-.69-.85-.87a.14.14,0,0,1-.12-.06v-.54l0-.25-.08-.21-.09-.2-.16.1a2.38,2.38,0,0,0-.67.55c-.19.24-.25.3-.33.3a.09.09,0,0,1-.1-.08h0l.06-.36v-.09a1.54,1.54,0,0,0-.71-1.22l-.15.16-.11.22-.25.28a1,1,0,0,0-.25.65v.13c0,.16,0,.22-.11.22h0l-.16-.21-.21-.25-.38-.23L51,62.1a1.73,1.73,0,0,0-.21,1v.17c0,.19-.06.3-.16.3a1,1,0,0,1-.23-.12.56.56,0,0,0-.31-.09.54.54,0,0,0-.54.54V64A1.8,1.8,0,0,0,49.86,65c.16.26.37.48.47.48a2.24,2.24,0,0,0,.07-.44l-.06-.33v-.16c0-.13,0-.22.13-.22s.18.13.26.48l.17.77.16,1a4.16,4.16,0,0,0,.25.83,4,4,0,0,0,.35.72c.23.29.25.34.25.4a.1.1,0,0,1-.09.1.48.48,0,0,1-.18-.06.81.81,0,0,0-.25-.08h-.16c-.34,0-.41.28-.41,1.63a8.44,8.44,0,0,0,.4,2.55l.43,1.09a1.3,1.3,0,0,1,.1.52c0,1.51-2,3.92-4.2,5-.83.4-1.08.82-1.15,2a3.73,3.73,0,0,1,.74-.31c.61-.17.74-.26.83-.54l.08-.28c0-.11.11-.17.54-.39a.85.85,0,0,0,.33-.26c.11-.18.19-.27.25-.27s.09,0,.09.11v0L49,79.9v.15a1.14,1.14,0,0,0,.65,1,.82.82,0,0,1,.06-.24,2.16,2.16,0,0,1,.21-.62l.39-.59c.14-.21.17-.34.17-.88V77.9a.14.14,0,0,1,.15-.16c.09,0,.13,0,.13.06l.06.39a.21.21,0,0,0,.2.15c.2,0,.46-.26.73-.72a.89.89,0,0,0,.15-.5,4.64,4.64,0,0,0-.07-.64v-.12a.15.15,0,0,1,.14-.17h0s.09,0,.1,0l.14.48c0,.16.16.27.28.27.31,0,.64-.65.67-1.34,0-.43.08-.58.21-.58a.1.1,0,0,1,.1,0l.09.28c0,.09.09.16.14.16s.16-.09.29-.25a1.85,1.85,0,0,0,.19-.27.73.73,0,0,0,.06-.21c0-.11,0-.13-.19-.26a.57.57,0,0,1-.23-.44,2.72,2.72,0,0,1,.5-1.26c.33-.58.38-.65.46-.65a.16.16,0,0,1,.14.17h0a.58.58,0,0,1,0,.18.54.54,0,0,0-.09.25.14.14,0,0,0,.16.14h0a.85.85,0,0,0,.38-.12,3.25,3.25,0,0,1,.54-.23l.71-.23a1.2,1.2,0,0,1,.42-.07,2.2,2.2,0,0,1,.36,0,2,2,0,0,0,.48.09.32.32,0,0,0,.33-.32h0a.92.92,0,0,0-.13-.36c-.11-.17-.17-.27-.19-.29a.57.57,0,0,1-.12-.18v-.08a.12.12,0,0,1,.11-.08c.17,0,.49.33.77.81,1.63,2.64,2.41,3.48,3.61,3.84s1.53.64,1.53,1.38a2.73,2.73,0,0,1-.65,1.48A4.37,4.37,0,0,0,62,81.2v.17l.23-.1a2.41,2.41,0,0,1,.33-.15l.52-.1a.45.45,0,0,0,.29-.44v0l0-.46V80c0-.25.13-.47.29-.47a.2.2,0,0,1,.15.13l.34.7a1.17,1.17,0,0,0,.72.62"/><path class="cls-6" d="M47.9,66.8v.54c0,.34.05.48.18.48s.35-.25.45-.54a2,2,0,0,0,.1-.54,1,1,0,0,0-.1-.39c-.1-.23-.19-.33-.31-.33s-.26.22-.3.8"/><path class="cls-6" d="M46.47,63l.29.29a3.2,3.2,0,0,1,.71,2.12v.34l-.06,1v.82c0,2.72.79,4.55,2,4.55a1.27,1.27,0,0,0,.89-.67c0-.08.12-.14.17-.14s.1,0,.1.17l0,.45,0,.39a1.62,1.62,0,0,0,.07.44,2.7,2.7,0,0,1,.06.41c0,.2,0,.22-.54.29a1.54,1.54,0,0,0-.58.23,2.18,2.18,0,0,0-.54.42l-.23.47a.16.16,0,0,1-.13.11c-.12,0-.28-.19-.51-.58a2.17,2.17,0,0,1-.3-.68c0-.06.05-.09.18-.09h.64a.17.17,0,0,0,.13-.15.15.15,0,0,0-.08-.12l-.93-.39a1.7,1.7,0,0,1-.7-.68,2.15,2.15,0,0,1-.37-.9c0-.15.06-.25.16-.25a.38.38,0,0,1,.15,0,.73.73,0,0,0,.25.08.25.25,0,0,0,.11,0,.17.17,0,0,0,.06-.1.32.32,0,0,0-.16-.21,2.5,2.5,0,0,1-1.25-1.77c0-.16,0-.23.12-.23h.15a1.35,1.35,0,0,0,.29,0c.11,0,.19-.06.19-.15s-.08-.14-.19-.2c-.55-.25-.64-.4-1-1.14A4.92,4.92,0,0,0,45.08,66a1.28,1.28,0,0,1,.64-.17c.28,0,.46.18.66.68.13.32.26.55.34.55s.06-.07.06-.24a2.16,2.16,0,0,0-.09-.62,1.76,1.76,0,0,1-.06-.46l0-.29-.23-.12a.78.78,0,0,1-.35-.68,2.43,2.43,0,0,1,0-.38l.13-.47a4.38,4.38,0,0,0,.15-.88v-.19Z"/><path class="cls-6" d="M49,77.89a3.15,3.15,0,0,1-1-.31,1.74,1.74,0,0,0-.77-.21,1.28,1.28,0,0,0-.89.35l.19.14.41.29.4.31a.55.55,0,0,0,.35.12,1.89,1.89,0,0,0,1.3-.7"/><path class="cls-6" d="M56.92,81.65a1.22,1.22,0,0,1,.41-.54c.58-.49.85-.86.85-1.16V79.5c0-.27,0-.36.19-.36a.15.15,0,0,1,.13.07l.1.24a.15.15,0,0,0,.17.09c.15,0,.25-.1.51-.54a.76.76,0,0,0,.15-.41.46.46,0,0,0,0-.23L59.24,78a.9.9,0,0,1-.09-.33c0-.13.07-.21.18-.21a.2.2,0,0,1,.15.06l.16.21s0,.07.11.07a.36.36,0,0,0,.27-.18l.16-.33a.62.62,0,0,0,.07-.19c0-.07-.07-.14-.17-.18l-.29-.13a1.46,1.46,0,0,1-.62-1.28,1.31,1.31,0,0,1,.06-.27l.13-.35a1.28,1.28,0,0,0,.06-.34,1.16,1.16,0,0,0-.21-.63,3.83,3.83,0,0,1-.25-.44c-.12-.31-.19-.4-.29-.4a.51.51,0,0,0-.27.09l-.21.13-.28.33-.29.14a1,1,0,0,0-.34.77c0,.45.1.69.77,1.9a2.62,2.62,0,0,1,.42,1.18c0,.84-.86,1.54-2.26,1.82-1.67.34-2,.62-2.23,1.69a1.53,1.53,0,0,1,.92-.11h.35c.28,0,.32,0,.49-.27a1.56,1.56,0,0,1,.69-.58l.33-.14.27-.15h.08c.07,0,.11,0,.11.09a.72.72,0,0,1-.19.34,1.28,1.28,0,0,0-.32.71,1,1,0,0,0,.21.6"/><path class="cls-6" d="M54.31,78.45a2.14,2.14,0,0,1,.62.54c.2.27.23.29.43.29a1.54,1.54,0,0,0,.3,0l.19,0c.35-.07.45-.12.45-.21a.21.21,0,0,0-.08-.17l-.25-.2-.23-.21a1.05,1.05,0,0,0-.65-.23,1.44,1.44,0,0,0-.78.25"/><path class="cls-6" d="M61,79.56h.61a.6.6,0,0,0,.41-.09,1.81,1.81,0,0,0,.4-.47.62.62,0,0,0,.08-.24c0-.14-.13-.22-.36-.22-.54,0-.91.31-1.13,1"/><path class="cls-3" d="M53.3,65.29c0,.19.12.35.22.35s.22-.3.44-.66a3,3,0,0,0,.54-1.18c0-.08,0-.15-.1-.15h0l-.23.21a2.38,2.38,0,0,1-.68.37c-.26.1-.34.18-.34.36l0,.16.17.36Z"/><path class="cls-3" d="M51.49,63.74a.43.43,0,0,0-.24-.1c-.08,0-.12,0-.12.15v.06a2,2,0,0,0,.08.35,1.68,1.68,0,0,0,.28.55l.31.54a1.13,1.13,0,0,0,.45.29h0a.12.12,0,0,0,.11-.09l.06-.41.11-.38v-.09a.31.31,0,0,0-.16-.24L52,64.21Z"/><path class="cls-3" d="M52.84,66.38h-.35l-.25-.15a.54.54,0,0,0-.28-.08.29.29,0,0,0-.31.26v.06a2.86,2.86,0,0,0,.26.86c.08.17.17.4.27.66.23.58.47.83.78.83s.48-.22.65-.66l.23-.93c.11-.29.39-.42.39-.62a.54.54,0,0,0-.49-.46h-.12l-.31.21Z"/><path class="cls-6" d="M52.83,66.92h-.25a.11.11,0,0,0-.11.06.39.39,0,0,0-.06.11l.1.5.07.42c0,.24.08.33.26.33a.39.39,0,0,0,.4-.39l0-.46a1.93,1.93,0,0,1,0-.47.24.24,0,0,0-.06-.11.15.15,0,0,0-.11,0h0Z"/><path class="cls-3" d="M24.6,111a3,3,0,0,1,.26,1l0,.87c0,.87.32,1.3.87,1.3a.68.68,0,0,0,.46-.14l.23-.23h.09c.15,0,.22.09.22.27v.34a5,5,0,0,0,.08.95,5.93,5.93,0,0,1,.06.84,2.14,2.14,0,0,1-.18,1,4.06,4.06,0,0,1,.23,1.25,1.79,1.79,0,0,1-.25,1,2.69,2.69,0,0,1,.1.7,5.16,5.16,0,0,1-.08.78,4.14,4.14,0,0,0-.08,1V122c0,.13,0,.19-.12.19a.35.35,0,0,1-.26-.16c-.12-.16-.2-.22-.3-.22s-.19.07-.4.69a3,3,0,0,1-.5.77,1.68,1.68,0,0,0-.37.6c-.07.25-.11.39-.13.43a.22.22,0,0,1-.12.11h0c-.35,0-.74-.73-1.13-2.11-.12-.39-.26-.55-.47-.55a.42.42,0,0,0-.36.24l-.13.29a.14.14,0,0,1-.1.08c-.17,0-.42-.31-.58-.69a2.56,2.56,0,0,1-.2-1c0-.65.48-1.13,1.92-1.94a1.62,1.62,0,0,0,.87-1.63,1.58,1.58,0,0,0-.75-1.43,1.62,1.62,0,0,0-.92-.46.32.32,0,0,0-.35.3h0c0,.2.11.31.38.41s.46.23.46.37a2.17,2.17,0,0,1-.36.75,1.79,1.79,0,0,1-.66.68,1.89,1.89,0,0,1-1,1.32,2,2,0,0,1-.41.76l-.44.55a1.81,1.81,0,0,0-.31.64c0,.31-.07.37-.19.37a2.07,2.07,0,0,1-.82-.73,1,1,0,0,1-.27-.68,1.07,1.07,0,0,1-.71.24,1.74,1.74,0,0,0-.54.15,1.46,1.46,0,0,1-.48.21c-.08,0-.11,0-.12-.19v-.45a3.31,3.31,0,0,1,.62-1.85,2.08,2.08,0,0,0-1-.54c-.13,0-.16,0-.16-.08a.93.93,0,0,1,.2-.38,3.62,3.62,0,0,1,.38-.41,2,2,0,0,1,1.2-.43,4.06,4.06,0,0,1,1.18.28,1.35,1.35,0,0,0,.49.11c.23,0,.36-.15.36-.41a5.53,5.53,0,0,0-.6-1.91,3.88,3.88,0,0,1-.41-1.37,2,2,0,0,1,.76-1.67.82.82,0,0,0-.46-.13,1.16,1.16,0,0,0-.63.21c-.31.18-.48.34-.48.44s.06.1.17.18a.38.38,0,0,1,.19.3,2.38,2.38,0,0,1-1,1.63,1.82,1.82,0,0,1-1.12,1.47,1.92,1.92,0,0,1-.46,1,3.54,3.54,0,0,0-.76,1.43c-.05.22-.1.32-.17.32a1.12,1.12,0,0,1-.47-.36,4.12,4.12,0,0,1-.33-.4,1.68,1.68,0,0,1-.23-.66.79.79,0,0,1-.3.05H13.2a2.54,2.54,0,0,0-1.18.26.58.58,0,0,1-.18.08c-.14,0-.24-.28-.24-.62a3.38,3.38,0,0,1,.69-2.05,3.44,3.44,0,0,1-.4-.37.43.43,0,0,0-.16-.14l-.23-.13c-.07,0-.12-.09-.12-.13a2.36,2.36,0,0,1,.66-.64,2,2,0,0,1,1-.38A1.27,1.27,0,0,1,14,113c.29.26.49.38.63.38a.42.42,0,0,0,.3-.19.58.58,0,0,0,.11-.31,2.37,2.37,0,0,0-2.23-1.8,1.38,1.38,0,0,0-1.29.74l-.23.48c-.06.11-.12.17-.2.17s-.2-.06-.67-.6l-.54-.63a1.7,1.7,0,0,1-.34-.54.79.79,0,0,0-.1-.27.68.68,0,0,0-.21-.17,2.8,2.8,0,0,1-.89-1.72,1.31,1.31,0,0,0-.06-.27,3.44,3.44,0,0,1-.81-2.06.86.86,0,0,1,.05-.27c-.3-.3-.33-.37-.55-1.16a2.94,2.94,0,0,0-.47-1.09.32.32,0,0,1-.09-.16c0-.11.18-.21.48-.26a2.2,2.2,0,0,1,.36,0h.41v-.55a3.77,3.77,0,0,1,.11-.94,3.18,3.18,0,0,0,.06-.43,1.34,1.34,0,0,0,0-.35,1.55,1.55,0,0,0-.06-.31.74.74,0,0,1,0-.14c0-.06,0-.1.12-.1a.59.59,0,0,1,.26.1,5.42,5.42,0,0,1,.89.54,3,3,0,0,1,1.28,1.93v.17a1.23,1.23,0,0,1,0,.3.65.65,0,0,0,.15.34l.23.31a1.57,1.57,0,0,1,.29.76c0,.19,0,.27-.38.76a1.61,1.61,0,0,0-.35.92,2.74,2.74,0,0,0,.42,1.31c.24.43.54.66.79.66.46,0,.67-.4.74-1.51,0-.58.09-1.09.16-1.57v-.28c0-.13,0-.21-.2-.41l-.63-.72c-.59-.69-.77-1.05-.77-1.54a.9.9,0,0,1,.83-1h.33v-.17a2.08,2.08,0,0,1,.11-.54c.13-.45.29-.79.38-.79a.75.75,0,0,1,.2.1,2.87,2.87,0,0,0,.37.15,2,2,0,0,1,.42.2,1.63,1.63,0,0,1,.33-.72c.26-.34.54-.62.68-.62s.18.09.33.25l.4.41a1.54,1.54,0,0,1,.23.39l.08.19.25-.14.33-.19.39-.18a.71.71,0,0,1,.21-.11c.08,0,.11.12.27.81a5.56,5.56,0,0,1,.14.91,1,1,0,0,1,1,1.08h0v.1a3.06,3.06,0,0,1-1,2.08.65.65,0,0,0-.24.5c0,1.83.64,2.41,2.93,2.65a14.64,14.64,0,0,1,3.53.77,7.41,7.41,0,0,0,1.74.38c.39,0,.61-.15.61-.4s-.28-.51-1.93-.85c-3.8-.81-5.34-2.12-5.34-4.65a3.07,3.07,0,0,1,3-3.17h.17a4.93,4.93,0,0,1,2.62.89c1.05.6,1.26.7,1.5.7s.38-.17.38-.62c0-.29.09-.43.27-.43a1.07,1.07,0,0,1,.64.44,1.48,1.48,0,0,1,.48,1.19A1.44,1.44,0,0,1,26,103.7l-.19.2a1.68,1.68,0,0,1-1.48.61,3.47,3.47,0,0,1-1.84-.6l-1-.7a1.82,1.82,0,0,0-1-.43.62.62,0,0,0-.68.54v.12a1,1,0,0,0,.75.91l.93.29a4.08,4.08,0,0,1,.89.37,2.49,2.49,0,0,1,.46-.05,3.94,3.94,0,0,1,1.75.44l.38.17.54.14a3.17,3.17,0,0,1,2.11,2.93A2.25,2.25,0,0,1,25.1,111Z"/><path class="cls-6" d="M24.25,123.28l.13-.25.28-.31a1.55,1.55,0,0,0,.38-1.09,2.24,2.24,0,0,0-.11-.67,2.11,2.11,0,0,1-.09-.36.24.24,0,0,1,.2-.25.23.23,0,0,1,.16.1l.31.35a.7.7,0,0,0,.5.31v-.63a2.49,2.49,0,0,0-.46-1.4.91.91,0,0,1-.24-.41c0-.08.05-.15.11-.15a.13.13,0,0,1,.09,0,.94.94,0,0,0,.36.21.69.69,0,0,0,.19-.54,2,2,0,0,0-.42-1.16,3.27,3.27,0,0,1-.25-.31.16.16,0,0,1-.05-.11.16.16,0,0,1,.15-.16h0a.47.47,0,0,1,.25.11.44.44,0,0,0,.16.06c.16,0,.22-.23.22-.85v-.63c0-.44-.06-.51-.25-.51h-.17c-1,0-1.48-.64-1.74-2.36-.18-1.25-.65-2.13-1.22-2.32-.34-.12-.46-.19-.46-.28s.09-.11.2-.11a1.4,1.4,0,0,1,.39.1,5.77,5.77,0,0,0,2.12.5,1.7,1.7,0,0,0,1.77-1.63h0a2.79,2.79,0,0,0-.89-2,1.16,1.16,0,0,0-.55-.31h0l-.1,0,0,.3.09.21v.08a.08.08,0,0,1-.08.08h0a.19.19,0,0,1-.15-.08l-.37-.54a2,2,0,0,0-1.38-.86c-.17,0-.28.08-.28.2a.55.55,0,0,0,.12.24.65.65,0,0,1,.19.33v.08c0,.05-.05.08-.08.09h0c-.09,0-.14,0-.59-.55a2.67,2.67,0,0,0-1.57-.82.19.19,0,0,0-.16.06.2.2,0,0,0,0,.08.36.36,0,0,0,.15.23.66.66,0,0,1,.22.32s-.05.07-.11.07a3.31,3.31,0,0,1-.88-.54,2.33,2.33,0,0,1-1.11-1.84A1.34,1.34,0,0,1,20.46,102h.06a2.55,2.55,0,0,1,1.38.5l1,.76a2.67,2.67,0,0,0,1.63.55.9.9,0,0,0,.36-.08c.09,0,.14-.1.14-.15s-.07-.06-.18-.08a2.49,2.49,0,0,1-.87-.37l-1-.78a7.22,7.22,0,0,0-.81-.55c-.55-.29-.65-.35-.65-.42s0-.06.12-.06a.41.41,0,0,1,.18,0l.54.23a5.69,5.69,0,0,1,.87.54,4,4,0,0,0,2.32,1,1,1,0,0,0,1.08-1h0v-.07a.73.73,0,0,0-.13-.4l-.1-.21c0-.08-.1-.13-.12-.1l-.06.08-.06.43a1,1,0,0,1-.07.15.55.55,0,0,1-.51.34c-.32,0-.68-.18-1.63-.79a5.16,5.16,0,0,0-2.56-.95,2.68,2.68,0,0,0-2.72,2.65h0v0c0,2.07,1.27,3,5.23,3.87,1.51.33,2.18.77,2.18,1.44s-.5,1-1.29,1a3.27,3.27,0,0,1-.54,0c-.14,0-.84-.23-2.13-.58a10.75,10.75,0,0,0-2.76-.39A3.7,3.7,0,0,0,16,110.09c-.08.12-.16.19-.22.19a.38.38,0,0,1-.17-.08l-.29-.23a1.43,1.43,0,0,0-.74-.28.63.63,0,0,0-.44.18A.55.55,0,0,1,14,110c-.11,0-.33-.26-.49-.6a3.22,3.22,0,0,1-.35-1.4c0-.21.07-.36.16-.36s.12.06.16.17l.16.59c.09.34.28.6.42.6s.18-.09.3-.25a1.05,1.05,0,0,0,.17-.29c.13-.38.16-.43.26-.43s.19.07.27.45a1.14,1.14,0,0,0,.13.35,2.4,2.4,0,0,0,.25.37.32.32,0,0,0,.24.09c.18,0,.34-.3.34-.64v-.44c0-.15,0-.2.11-.2s.09,0,.15.11a1.35,1.35,0,0,0,.35.28.77.77,0,0,0,.3.11.33.33,0,0,0,.2-.11.21.21,0,0,0,.08-.16c0-.06-.07-.16-.29-.37a2.8,2.8,0,0,1-.41-.83c-.06-.16-.14-.27-.2-.27l-.13,0-.27.1-.18.09h-.07a.15.15,0,0,1-.16-.15,1.21,1.21,0,0,1,.42-.48.78.78,0,0,0,.26-.55c0-.35.08-.62.15-.62l.06-.73a7.66,7.66,0,0,1,.31-1.42.14.14,0,0,1,.09-.12.46.46,0,0,1,.1.32v.32c0,.26.05.4.13.4s.19-.13.28-.36l.19-.47a1.8,1.8,0,0,0,.08-.39.62.62,0,0,0-.54-.69h-.21l-.15.05a.26.26,0,0,1-.2-.27v-.7l-.08-.43v-.21l-.17.1-.23.19-.33.26-.27.23a.3.3,0,0,1-.15.07c-.16,0-.18,0-.18-.37v-.08c0-.26-.12-.46-.55-1l-.1-.13-.08.15-.23.37-.23.57,0,.37c0,.11,0,.19-.09.19a.38.38,0,0,1-.2-.14,1.57,1.57,0,0,0-.89-.6l0,.14a4.09,4.09,0,0,0-.12.44V102c0,.11,0,.18-.12.18h0l-.12-.11A.37.37,0,0,0,12,102c-.39,0-.63.2-.63.54s.09.44.47,1c.16.26.36.46.44.46s.09-.13.09-.29l0-.25a.87.87,0,0,1-.06-.32c0-.11,0-.17.1-.17s.38.54.45,1.28l.09.76a2.42,2.42,0,0,0,.25.83,2.07,2.07,0,0,0,.54.77c.2.14.32.27.32.35a.12.12,0,0,1-.11.12l-.41-.16h-.17c-.41,0-.54.23-.54.94A3.93,3.93,0,0,0,14,110.49l.95.77a2.21,2.21,0,0,1,.85,1.49c0,.6-.67,1.2-1.8,1.63l-.69.24c-.54.2-.74.55-.95,1.54a1.74,1.74,0,0,1,.55-.11h.39a.43.43,0,0,0,.48-.37v-.21c0-.06.08-.13.19-.19l.28-.15.23-.18a.26.26,0,0,1,.12,0,.13.13,0,0,1,.11.13.65.65,0,0,1,0,.19,1.92,1.92,0,0,0-.11.71,1.7,1.7,0,0,0,.34,1.15,1.31,1.31,0,0,1,.06-.27,2.62,2.62,0,0,1,.35-.54,2.78,2.78,0,0,0,.54-1.26v-.09l-.06-.47a.3.3,0,0,1,.11-.23.17.17,0,0,1,.14-.06c.08,0,.14.06.21.21s.11.18.15.18a1,1,0,0,0,.3-.41,1.13,1.13,0,0,0,.1-.44.66.66,0,0,0-.06-.27.86.86,0,0,1-.06-.23s0-.08.08-.14a.21.21,0,0,1,.11,0,.25.25,0,0,1,.12,0l.19.13a.25.25,0,0,0,.17.06.44.44,0,0,0,.28-.22,1.74,1.74,0,0,0,.3-.59s0-.09-.15-.17a1.5,1.5,0,0,1-.68-1.09.77.77,0,0,1,.06-.3l.2-.54.17-.44h.06c.07,0,.11.06.11.16a.86.86,0,0,1-.05.23,1.38,1.38,0,0,0-.09.39.2.2,0,0,0,.17.23h0a.85.85,0,0,0,.35-.08,4.18,4.18,0,0,1,1.39-.44,1.15,1.15,0,0,1,.75.27.33.33,0,0,0,.19.08.2.2,0,0,0,.12-.08.18.18,0,0,0,0-.1.45.45,0,0,0-.12-.27.44.44,0,0,1-.15-.3.1.1,0,0,1,.1-.1h0c.32,0,.83,1,1.32,2.65.38,1.29.49,1.42,1.72,2.12a2.23,2.23,0,0,1,1.43,2.11,11.94,11.94,0,0,1-.79,3.68,2.52,2.52,0,0,0,0,2.08,4.18,4.18,0,0,0,.15.48,1.82,1.82,0,0,0,.16.31"/><path class="cls-6" d="M19.43,120.38a3.21,3.21,0,0,1,.39-.7,2,2,0,0,0,.46-1v-.34c0-.3,0-.45.18-.45a.14.14,0,0,1,.11.06l.1.17a.18.18,0,0,0,.15.08.41.41,0,0,0,.24-.19,1.41,1.41,0,0,0,.24-.74v-.46c0-.13.05-.18.17-.18s.11,0,.18.18.11.17.16.17a.22.22,0,0,0,.17-.12l.17-.25.12-.19,0-.1s0-.11-.16-.19c-.39-.27-.55-.7-.58-1.46a6.27,6.27,0,0,0-.1-1.14s-.14-.34-.38-.88a7.32,7.32,0,0,1-.25-.75c-.05-.19-.11-.25-.25-.25a1,1,0,0,0-1,1.06v.07a5.15,5.15,0,0,0,.44,1.68,4.94,4.94,0,0,1,.5,1.72c0,.76-.3,1.08-1.35,1.46a2.58,2.58,0,0,0-1.94,2.13l.2-.08.29-.1.33-.08a.8.8,0,0,0,.55-.39l.08-.29a.2.2,0,0,1,.12-.15l.19-.08.18-.08,0,.08-.08.27a2,2,0,0,0,0,.49,1.47,1.47,0,0,0,.36,1"/><path class="cls-6" d="M8.34,101.25a.85.85,0,0,1,0,.23,3.35,3.35,0,0,1-.08.54l0,.42a3.37,3.37,0,0,0,.18,1.09,1.57,1.57,0,0,1,.13.47v.09c0,.09,0,.14-.08.14a.39.39,0,0,1-.21-.13,1.2,1.2,0,0,0-.77-.31,2.27,2.27,0,0,0-.35,0l.11.23.3.76.45.67.45.31a.53.53,0,0,1,.13.13.26.26,0,0,1,.06.13.08.08,0,0,1-.08.07H8.17a.11.11,0,0,0-.12.09,3.07,3.07,0,0,0,.18.61l.21.61.35.33.37.27a.38.38,0,0,1,.18.23.13.13,0,0,1-.08.12h-.2c-.07,0-.11.07-.11.17a1.82,1.82,0,0,0,.42.8c.32.44.55.59.92.59h.31c.14,0,.23.07.23.19s-.05.15-.2.18-.37.12-.37.25a.48.48,0,0,0,.1.23l.17.23c.14.19.29.31.39.31a.51.51,0,0,0,.31-.19,1.21,1.21,0,0,1,.66-.45c.72-.19.87-.26.87-.43a.46.46,0,0,0-.08-.24,1.93,1.93,0,0,1-.31-1c0-.25-.07-.44-.17-.44s-.1.07-.16.17a.92.92,0,0,1-.73.44c-.71,0-1.58-1.12-2-2.61a4,4,0,0,1-.16-1.09,5.36,5.36,0,0,1,.15-1.26l.23-1V103a2.49,2.49,0,0,0-1.21-1.69"/><path class="cls-6" d="M9.84,104.12a3.49,3.49,0,0,0-.3,1.35c0,.24.08.43.18.43s.08,0,.12-.1l.22-.41.15-.26a.69.69,0,0,0,.14-.3.91.91,0,0,0-.54-.7"/><path class="cls-6" d="M12.11,113.45l.1.1.17.17c.4.41.46.45.66.45a2.16,2.16,0,0,0,.77-.21c.08,0,.14-.1.14-.14s-.07-.11-.2-.23l-.23-.21a1.14,1.14,0,0,0-.54-.29,1.58,1.58,0,0,0-.86.36"/><path class="cls-6" d="M16.91,117.19a3.17,3.17,0,0,1,.41.21l.33.21a1.24,1.24,0,0,0,.33,0,1,1,0,0,0,.25,0l.43-.17.42-.14c.11,0,.18-.11.18-.16s-.09-.08-.23-.11l-.31-.1c-.51-.21-.58-.24-.76-.24a1.4,1.4,0,0,0-1.06.51"/><path class="cls-6" d="M22.15,121.36c.13-.34.23-.4.7-.42s1-1,1-1.63c0-.06,0-.12-.05-.12a.61.61,0,0,0-.14.07,2.59,2.59,0,0,1-.31.19l-.6.26a1.44,1.44,0,0,0-.76,1.14,1.46,1.46,0,0,0,.12.5"/><path class="cls-3" d="M13.2,103.38l.21.28a2.09,2.09,0,0,0,.45.33c.06,0,.1,0,.13-.18l.08-.31v-.34c0-.27-.12-.38-.68-.54a.79.79,0,0,1-.29-.11.58.58,0,0,0-.25-.12s-.09,0-.09,0v.09l.11.31Z"/><path class="cls-3" d="M15.42,103.37l-.27.48-.1.11h0c-.11,0-.23-.25-.23-.51l0-.41c0-.17.13-.25.39-.29a1.48,1.48,0,0,0,.41-.12l.34-.23h0a.1.1,0,0,1,.1.08h0v0l-.15.35Z"/><path class="cls-3" d="M14.88,104.78l.33-.16a.32.32,0,0,1,.16,0c.16,0,.28.12.28.33a2.48,2.48,0,0,1-.44,1c-.27.5-.47.84-.69.84s-.71-.48-1.13-1.27a1.47,1.47,0,0,1-.15-.58q0-.39.33-.39a.48.48,0,0,1,.24.06l.19.13a1,1,0,0,0,.54.16.86.86,0,0,0,.36-.08"/><path class="cls-6" d="M14.4,105.28l-.22,0h0c-.13,0-.19.08-.19.22a1.84,1.84,0,0,0,.37.9.22.22,0,0,0,.16.09c.14,0,.23-.26.3-.67l.06-.31v-.06c0-.13,0-.18-.14-.18h0"/><path class="cls-3" d="M60.6,110.68a1.82,1.82,0,0,0,1.28.8,2.53,2.53,0,0,0,.55-.09,1.26,1.26,0,0,1,.27,0c.11,0,.14,0,.14.13a1.26,1.26,0,0,1-.1.38,1.82,1.82,0,0,0-.13.37l-.08.44-.21.37-.29.27-.08.09v.25a1.08,1.08,0,0,1-.54,1.09l-.15.1,0,.17a4.27,4.27,0,0,1-.21.72,3.27,3.27,0,0,1-.39.58,3.82,3.82,0,0,0-.54.85c-.09.21-.15.27-.29.27a.66.66,0,0,1-.44-.55,1.47,1.47,0,0,1-.1.13l-.25.16-.39.27a2.7,2.7,0,0,0-.34.25l-.22.23a.34.34,0,0,1-.12.06c-.11,0-.21-.18-.32-.55l-.2-.68a2.44,2.44,0,0,1-.09-.66,1.56,1.56,0,0,1,.15-.74,2.69,2.69,0,0,0-.74.14.58.58,0,0,1-.18,0,.11.11,0,0,1-.11-.12,1.09,1.09,0,0,1,.08-.31l.27-.7a1.72,1.72,0,0,1,1.42-1,1.41,1.41,0,0,1,.54.11,1.13,1.13,0,0,0,.32.06.41.41,0,0,0,.43-.39h0a.33.33,0,0,0-.17-.27l-.75-.22a1.73,1.73,0,0,1-.91-.69c-.28-.33-.39-.42-.5-.42s-.12.06-.12.15v.41a3.84,3.84,0,0,1-.58,1.88l-.59,1a2.66,2.66,0,0,0-.39,1.26c0,.42.18.79.42.85l.31.08a.17.17,0,0,1,.1.07.13.13,0,0,1,.06.11.32.32,0,0,1-.1.19s-.16.21-.37.48a1.75,1.75,0,0,1-1,.76,2,2,0,0,1-1.39,1.2l-.08.15a1.7,1.7,0,0,1-1.14.83h-.08a1.66,1.66,0,0,1-.72,1,5.2,5.2,0,0,0-.47.35.87.87,0,0,0-.11.18c-.09.21-.18.3-.29.3s-.4-.21-.54-.61l-.19.13-.39.27a6.14,6.14,0,0,1-.73.22,1.84,1.84,0,0,0-1.05.54l-.19.31-.08,0c-.11,0-.22-.14-.27-.33a5.11,5.11,0,0,1-.19-1.16,2.54,2.54,0,0,1,1-2v-.18a2,2,0,0,1,2.17-1.92h.24l.7,0h.07a1.68,1.68,0,0,0,1.08-.46c.51-.41.66-.67.66-1.13a3.25,3.25,0,0,0-.2-.83A2.93,2.93,0,0,1,54,112.38c.22-.15.38-.35.38-.47s0-.08-.06-.08a.48.48,0,0,0-.26.16,2.53,2.53,0,0,1-.49.31l-.33.16-.38.15c-.11,0-.17.11-.17.18a.41.41,0,0,0,.05.19.83.83,0,0,1,0,.15.64.64,0,0,1-.1.24l-.29.48a1.76,1.76,0,0,1-.85.83c-.23.68-.54,1-1,1.08-.4.79-.74,1.09-1.43,1.14a2.53,2.53,0,0,1-.62.95,2.16,2.16,0,0,0-.27.33c-.16.29-.17.31-.25.31a.93.93,0,0,1-.47-.31,1.18,1.18,0,0,1-.19-.25l-.18-.33c-.06-.11-.13-.16-.2-.16h-.13l-.46.07a1.46,1.46,0,0,0-.81.49l-.25.37a.11.11,0,0,1-.1.06c-.18,0-.29-.4-.29-1.08a2.13,2.13,0,0,1,.29-1.28l.58-.79a.59.59,0,0,0,.12-.31.38.38,0,0,0-.1-.27.68.68,0,0,0-.33-.25l-.43-.06c-.08,0-.11,0-.11-.07a.26.26,0,0,1,.08-.13,2,2,0,0,1,.54-.45,2.28,2.28,0,0,1,1.2-.44,2.08,2.08,0,0,1,1.08.36l.6.39a.6.6,0,0,0,.29.08c.28,0,.49-.16.68-.54a2,2,0,0,0,.27-1,1.29,1.29,0,0,0-1.21-1.36h-.19a1.76,1.76,0,0,0-1.09.42.53.53,0,0,0-.2.22l-.17.38c0,.09-.1.14-.14.14a2,2,0,0,1-.55-.69,4.38,4.38,0,0,1-.29-.74,3.58,3.58,0,0,1-.17-1l0-.55a2.07,2.07,0,0,1-.37-1.28,2.62,2.62,0,0,1,.14-.73,1.49,1.49,0,0,1-.22-.92v-.26l.06-.29,0-.25c-.2-.26-.26-.43-.46-1.34a2.92,2.92,0,0,0-.26-.87.21.21,0,0,1-.07-.12c0-.12.29-.23.62-.23h.29a.88.88,0,0,1-.08-.42,2.73,2.73,0,0,1,.17-.85,1.48,1.48,0,0,0,.13-.5,1.91,1.91,0,0,0-.13-.63l-.16-.42a.73.73,0,0,1-.06-.21s0,0,.11,0a3.5,3.5,0,0,1,1.79,1A2.27,2.27,0,0,1,48,103l0,.45a1.81,1.81,0,0,1,.81,1.35,1.07,1.07,0,0,1-.42.84,1.77,1.77,0,0,0-.66,1.56c0,1.09.32,1.69.93,1.69s1-.57,1-1.43l.06-.78a4.82,4.82,0,0,1,.1-.75,3.33,3.33,0,0,0,.07-.54c0-.28-.19-.63-.72-1.26a2.4,2.4,0,0,1-.78-1.58,1,1,0,0,1,1-1.08h0a.64.64,0,0,1,.4.11,2,2,0,0,1,.27-.93c.16-.4.33-.68.41-.68s.07,0,.13.08a1.49,1.49,0,0,0,.27.23l.21.15.18.18a2,2,0,0,1,.64-1c.29-.28.4-.37.45-.37a.24.24,0,0,1,.15.11l.25.33.35.4a1,1,0,0,1,.25.62l.21-.12.33-.19a2.2,2.2,0,0,0,.25-.17.31.31,0,0,1,.13-.06s.08.06.1.14l.12.48.28.54a1.13,1.13,0,0,1,.1.54v.13H55c.41,0,.76.49.76,1a3,3,0,0,1-1.35,2.18,1.61,1.61,0,0,0-.09.54c0,1.63.44,2,3,2.37a14.24,14.24,0,0,1,1.7.35l1.63.54a3.94,3.94,0,0,0,1.23.28c.31,0,.47-.09.47-.25s-.41-.55-1.68-1l-1.8-.7c-1.83-.71-2.72-1.83-2.72-3.48a3.27,3.27,0,0,1,3.17-3.35h.19a6.83,6.83,0,0,1,2.44.55,6.3,6.3,0,0,0,1.52.49c.25,0,.39-.17.43-.54s.11-.44.28-.44a.94.94,0,0,1,.73.63,2.54,2.54,0,0,1,.27,1.08,1.19,1.19,0,0,1-1,1.26,2,2,0,0,1-1.67.86c-.83,0-1.23-.16-2.64-1a1.73,1.73,0,0,0-1.09-.39.77.77,0,0,0-.85.68h0v0c0,.38.3.63,1,.81a1.07,1.07,0,0,1,.69.35,1.33,1.33,0,0,1,.34,0,3.65,3.65,0,0,1,2.17,1,3.53,3.53,0,0,1,2.41,2.92,2.45,2.45,0,0,1-2.3,2.38,7.84,7.84,0,0,1-1.6-.25"/><path class="cls-6" d="M59.86,116.41l.08-.23.08-.3a1.56,1.56,0,0,1,.23-.34,1.59,1.59,0,0,0,.31-1,.8.8,0,0,0-.11-.4.7.7,0,0,1-.06-.19.18.18,0,0,1,0-.1.16.16,0,0,1,.08-.06h0a.37.37,0,0,1,.22.15c.08.11.16.16.21.16s.19-.15.24-.39a.46.46,0,0,1,0-.2,2.32,2.32,0,0,0-.19-.58.79.79,0,0,1-.06-.22.12.12,0,0,1,.11-.13h0a.59.59,0,0,1,.27.17.21.21,0,0,0,.16.08c.13,0,.22-.13.32-.45a2,2,0,0,0,.08-.33c0-.06,0-.1-.07-.1h-.29a1.8,1.8,0,0,1-1.17-.54l-.58-.7q-.28-.33-.54-.69l-.48-.31a.22.22,0,0,1-.12-.16c0-.08.07-.13.19-.13a4.7,4.7,0,0,1,1.09.38,6.58,6.58,0,0,0,2.1.45,1.79,1.79,0,0,0,1.8-1.77,2.62,2.62,0,0,0-.82-1.7.71.71,0,0,0-.38-.26.11.11,0,0,0-.11.11h0a.48.48,0,0,0,.06.24.58.58,0,0,1,0,.19c0,.09,0,.14-.1.14a.87.87,0,0,1-.37-.58,1.7,1.7,0,0,0-1-1.06,2.3,2.3,0,0,0-.65-.23.08.08,0,0,0-.07.09.46.46,0,0,0,.08.25,1.13,1.13,0,0,1,.17.39h0a.13.13,0,0,1-.1.13h0c-.07,0-.16,0-.47-.5a2.26,2.26,0,0,0-.92-.7.94.94,0,0,0-.36-.08h0c-.07,0-.13,0-.13.08a1.63,1.63,0,0,0,.09.19l0,.11a.12.12,0,0,1-.09.12h0a2.28,2.28,0,0,1-.81-.67,2.09,2.09,0,0,1-.54-1.24A1.63,1.63,0,0,1,59,102a1.24,1.24,0,0,1,.54.1l.73.37.84.55a3.51,3.51,0,0,0,1.56.54,2.42,2.42,0,0,0,.66-.13c.2-.06.33-.14.33-.21h0l-.07,0-.46,0a4,4,0,0,1-1.3-.58l-1-.61-.85-.36a.11.11,0,0,1-.1-.11.09.09,0,0,1,.1-.07h0l.23,0,.79.23a5.42,5.42,0,0,1,.95.43,4.3,4.3,0,0,0,1.82.69.78.78,0,0,0,.83-.73h0v0a2.33,2.33,0,0,0-.08-.59.83.83,0,0,0-.12-.27c0-.06-.08-.08-.11-.08a.17.17,0,0,0-.09.17v.26c0,.38-.15.54-.54.54a6,6,0,0,1-1.86-.54,6.1,6.1,0,0,0-2.22-.55,2.91,2.91,0,0,0-2.92,2.72c0,1.25.83,2.21,2.53,2.91l1.76.72c1.45.6,2,1,2,1.59s-.44.78-1.12.78a5.11,5.11,0,0,1-1.34-.3,12.1,12.1,0,0,0-3.66-.74,4.44,4.44,0,0,0-3.5,1.34.34.34,0,0,1-.28.15.57.57,0,0,1-.29-.11,1,1,0,0,0-.46-.15.76.76,0,0,0-.5.27l-.2.27a.28.28,0,0,1-.19.12c-.15,0-.41-.25-.58-.54a2,2,0,0,1-.2-.55,2.41,2.41,0,0,1,0-.54v-.38l.07-.42c0-.2.05-.31.06-.35a.1.1,0,0,1,.1-.08c.11,0,.15.1.15.32v.23c0,.58.24,1.13.49,1.13s.38-.37.54-1.09c0-.14.09-.23.16-.23s.13.11.2.41a1.65,1.65,0,0,0,.31.67.36.36,0,0,0,.23.17c.17,0,.28-.26.37-.85,0-.23.1-.38.18-.38a.12.12,0,0,1,.09,0l.14.23a.63.63,0,0,0,.23.2.53.53,0,0,0,.24.08.32.32,0,0,0,.2-.08c.09-.08.14-.14.14-.17a.36.36,0,0,0-.12-.18,1.85,1.85,0,0,1-.37-.69l-.19-.47a.25.25,0,0,0-.1-.15h-.18l-.44.13H53a.1.1,0,0,1-.1-.09h0a.36.36,0,0,1,.17-.23,3.07,3.07,0,0,0,.95-2.13,2.09,2.09,0,0,1,.35-1.21c.05-.08.1-.13.13-.13a.2.2,0,0,1,.13.19,1,1,0,0,1-.07.29.73.73,0,0,0,0,.25V104l0,.13.23-.08.24-.29a1.46,1.46,0,0,0,.27-.85.68.68,0,0,0-.16-.48c-.13-.16-.23-.22-.32-.22h-.29c-.13,0-.2,0-.2-.12l0-.15v-.25l-.12-.55-.11-.25-.06-.2-.15.1-.31.19a.88.88,0,0,0-.25.22c-.29.36-.31.38-.43.38s-.12,0-.12-.08v-.08a1.65,1.65,0,0,0,.06-.43,2,2,0,0,0-.57-1.21,1.88,1.88,0,0,0-.63,1.36v.25q0,.15-.09.15h0a.33.33,0,0,1-.15-.11l-.25-.33a2.16,2.16,0,0,0-.33-.27l-.16-.14-.08.16a2.07,2.07,0,0,0-.29,1c0,.28,0,.36-.1.36a.21.21,0,0,1-.13,0c-.32-.17-.34-.18-.48-.18a.6.6,0,0,0-.62.6h0v.06a1.59,1.59,0,0,0,.24.69c.19.33.47.64.6.64s0,0,0-.12v-.4l0-.27v0q0-.12.09-.12c.19,0,.35.55.49,1.63a3.23,3.23,0,0,0,.8,2c.11.1.17.18.17.22a.08.08,0,0,1-.08.07.64.64,0,0,1-.27-.11.43.43,0,0,0-.22-.06.56.56,0,0,0-.48.5l-.19,1.18L50,110.1a4.35,4.35,0,0,0,.12,1.24,5.29,5.29,0,0,1,.15,1,2.67,2.67,0,0,1-2.05,2.6l-1.33.39a1.83,1.83,0,0,0-1.34,1.8,1,1,0,0,1,.61-.24l.39-.06a1.1,1.1,0,0,0,.35-.11,2.39,2.39,0,0,0,.23-.22l.35-.4c.13-.15.25-.23.33-.23s.08.06.08.12a.85.85,0,0,1-.14.34.88.88,0,0,0-.15.55,1.3,1.3,0,0,0,.33.81,1.83,1.83,0,0,1,.08-.25,4.91,4.91,0,0,1,.31-.44,2.28,2.28,0,0,0,.5-.93c0-.32,0-.43.11-.43s.08,0,.12.2a.27.27,0,0,0,.18.2.3.3,0,0,0,.16-.08,1.54,1.54,0,0,0,.34-.28,1.79,1.79,0,0,0,.31-.77v-.27c0-.07,0-.13.07-.13s.15.11.22.23.07.1.13.1h0a.25.25,0,0,0,.18-.08A1.23,1.23,0,0,0,51,114v-.38l-.08-.32h0a.12.12,0,0,1,.1-.12c.09,0,.19.13.34.44.06.14.12.21.19.21s.17-.08.36-.36l.19-.26a.4.4,0,0,0,0-.42L52,112.5a.34.34,0,0,1,0-.2,1.86,1.86,0,0,1,.31-1,3.94,3.94,0,0,0,.26-.55c0-.08.07-.12.12-.12s.07,0,.07.1v.54c0,.08.07.11.18.11a.87.87,0,0,0,.22,0l.54-.18a5.24,5.24,0,0,0,.48-.23,2.83,2.83,0,0,1,1.46-.54,2.59,2.59,0,0,1,1,.29.58.58,0,0,0,.21.07.25.25,0,0,0,.18-.11.22.22,0,0,0,.06-.15.47.47,0,0,0-.08-.26.91.91,0,0,1-.12-.31.08.08,0,0,1,.08-.09h0A.25.25,0,0,1,57,110c.06.09.21.37.47.82A2.43,2.43,0,0,0,58.82,112l.91.21c.28.06.35.17.35.54a1.81,1.81,0,0,1-.82,1.55l-.75.47a1.36,1.36,0,0,0-.49,1,4.93,4.93,0,0,0,.15,1.08l.14-.14.36-.2.31-.31.16-.46.16-.41c.08-.2.18-.33.24-.33s.12.11.12.31v.14a1.52,1.52,0,0,0,.27.87"/><path class="cls-6" d="M47.6,122.31c0-1,.36-1.41,1.79-2.13,2.8-1.43,4.34-2.72,4.34-3.73a4.16,4.16,0,0,0-.25-1.11,3.51,3.51,0,0,1-.18-.9,2.55,2.55,0,0,1,.87-1.58l.39-.36a1,1,0,0,0,.37-.65v-.21c0-.21.08-.29.3-.29h.18l.16,0a.25.25,0,0,1,.17.11l.11.17.14.16a.3.3,0,0,0,.13.09l.16-.06a.46.46,0,0,1,.25-.08c.11,0,.16.06.16.18A3.12,3.12,0,0,1,56,113.5a3.84,3.84,0,0,0-1.05,2.34,2.25,2.25,0,0,0,.45,1.4.37.37,0,0,1,.08.15.59.59,0,0,1-.14.27,1.83,1.83,0,0,0-.13.16c-.16.24-.28.34-.38.34a.22.22,0,0,1-.2-.17l-.08-.23a.15.15,0,0,0-.12-.11.38.38,0,0,0-.09.09.36.36,0,0,0-.08.23v.35a.63.63,0,0,1-.15.41,1.67,1.67,0,0,1-.28.31.37.37,0,0,1-.17.1c-.06,0-.12-.06-.14-.16l-.13-.42a.11.11,0,0,0-.1-.1c-.05,0-.13.11-.15.29a1.49,1.49,0,0,1-.24.87l-.29.26a.54.54,0,0,1-.26.16.13.13,0,0,1-.13-.08l-.15-.3a.1.1,0,0,0-.09-.07c-.08,0-.15.16-.18.48a1.58,1.58,0,0,1-.64,1.36,1.22,1.22,0,0,0-.54.58,1.35,1.35,0,0,1-.25-.82.66.66,0,0,1,.09-.39.87.87,0,0,0,.13-.35.08.08,0,0,0-.07-.09h0a.39.39,0,0,0-.1.08,1.09,1.09,0,0,1-.27.21.8.8,0,0,0-.54.7,1.09,1.09,0,0,1-1,.93c-.7.14-.75.16-1,.4Z"/><path class="cls-6" d="M46.27,101v.55a1.26,1.26,0,0,1-.05.33,2.57,2.57,0,0,0-.08.47,1.68,1.68,0,0,0,.29,1,1.55,1.55,0,0,1,.21.7c0,.08,0,.13-.09.13a.11.11,0,0,1-.1-.06l-.17-.23c-.13-.18-.25-.23-.59-.23h-.36a5.13,5.13,0,0,1,.25.72c.17.68.19.73.55,1.06s.4.37.4.49a.16.16,0,0,1-.14.17h-.22c-.12,0-.22.21-.22.44a1.64,1.64,0,0,0,.13.54.86.86,0,0,0,.14.25l.21.21a.32.32,0,0,1,.08.21c0,.11-.06.19-.12.19a.44.44,0,0,1-.19-.07.33.33,0,0,0-.15,0c-.09,0-.13,0-.13.17l0,.31.13.54a1.12,1.12,0,0,0,.54.65l.41.18a.18.18,0,0,1,.06.17A.13.13,0,0,1,47,110h0l-.2-.11h-.21c-.21,0-.22,0-.22.17a1.12,1.12,0,0,0,0,.32l.08.33c.09.35.2.55.33.55l.15-.08a2.55,2.55,0,0,1,1.28-.44,4.24,4.24,0,0,1,1,.1.41.41,0,0,0,.19,0c.05,0,.07,0,.07-.23l.05-.38.08-.64.06-.48v-.27l-.17.15a1.21,1.21,0,0,1-.94.43c-.95,0-1.5-1.08-1.5-2.93a20.39,20.39,0,0,1,.33-3.11,4.07,4.07,0,0,0,.07-.61A2.26,2.26,0,0,0,46.26,101"/><path class="cls-6" d="M47.69,105.61l.18-.19.18-.16a1,1,0,0,0,.28-.64.59.59,0,0,0-.07-.29c-.07-.16-.21-.3-.29-.3s-.14.17-.17.44l0,.31-.06.31v.52Z"/><path class="cls-6" d="M45.85,114.07c.21.08.25.11.47.37a.89.89,0,0,0,.83.41,1,1,0,0,0,.29,0l.25-.07.2-.07c.1,0,.17-.07.17-.1a1.67,1.67,0,0,0-.37-.38,3.53,3.53,0,0,0-.5-.28,1,1,0,0,0-.47-.13,1.46,1.46,0,0,0-.86.27"/><path class="cls-6" d="M48.64,119.89a1.36,1.36,0,0,1,1.46-1.21c.4,0,.63.08.63.21s-.17.25-.54.46l-.6.33a7.83,7.83,0,0,1-.92.45Z"/><path class="cls-6" d="M57.06,114.88a4.37,4.37,0,0,1,.55-.14H58a1.38,1.38,0,0,0,.25-.17l.29-.21c.41-.28.43-.3.43-.39s-.17-.17-.54-.17c-.65,0-1,.31-1.37,1.06"/><path class="cls-3" d="M50.81,102.28l.29.18a2.13,2.13,0,0,0,.42.23c.32.13.43.18.43.3a.85.85,0,0,1,0,.23,1.5,1.5,0,0,0-.06.29.32.32,0,0,1-.31.36c-.11,0-.29-.22-.55-.62a6.52,6.52,0,0,1-.33-.83v-.08a.08.08,0,0,1,.07-.08h0"/><path class="cls-3" d="M53.61,103l-.48.48a1.46,1.46,0,0,0-.2.46.34.34,0,0,1-.15.06h0a.23.23,0,0,1-.22-.2h0v-.71h0a.22.22,0,0,1,.19-.23l.44-.11.45-.23a.46.46,0,0,1,.19-.08.11.11,0,0,1,.1.11.57.57,0,0,1,0,.14Z"/><path class="cls-3" d="M51.52,104.41l.31.23a.55.55,0,0,0,.28.07,1.23,1.23,0,0,0,.49-.13l.27-.12a.43.43,0,0,1,.16,0c.17,0,.3.18.3.4a2.16,2.16,0,0,1-.54,1.09l-.23.48c-.18.26-.3.35-.45.35s-.36-.14-.73-.87a2.78,2.78,0,0,1-.38-1.09c0-.21.12-.37.28-.37a.4.4,0,0,1,.24,0"/><path class="cls-6" d="M51.79,105.55v.4a.36.36,0,0,0,.3.35c.19,0,.32-.29.4-.73a2.46,2.46,0,0,0,.09-.29c0-.15,0-.19-.25-.19H52c-.13,0-.18.1-.18.36"/><path class="cls-3" d="M28.49,96.18h2v4.15h2.37v-4.1h6v4.11h2.38V96.23h2.06V85.5H41l-.08-.1a1.26,1.26,0,0,0-1.12-.63,1.22,1.22,0,0,0-1.09.75H37a1.25,1.25,0,0,0-2.29,0h-1.8a1.21,1.21,0,0,0-1.14-.75,1.12,1.12,0,0,0-1.09.75H28.54Z"/><rect class="cls-5" x="29.36" y="86.38" width="13.15" height="9.01"/><path class="cls-6" d="M30.73,88.44a.63.63,0,1,0,.62.63.63.63,0,0,0-.62-.63h0"/><path class="cls-7" d="M30.73,89.78a.71.71,0,1,1,.71-.71.71.71,0,0,1-.71.71Zm0-1.25a.55.55,0,0,0-.55.55.55.55,0,0,0,.55.54.54.54,0,0,0,.54-.54.55.55,0,0,0-.54-.55Z"/><path class="cls-6" d="M41.06,88.44a.63.63,0,0,0-.6.66.62.62,0,0,0,.65.59.63.63,0,0,0,0-1.25h0"/><path class="cls-7" d="M41.06,89.78a.71.71,0,1,1,.71-.71h0A.71.71,0,0,1,41.06,89.78Zm0-1.25a.55.55,0,0,0-.55.55.55.55,0,0,0,.55.54.54.54,0,0,0,.54-.54.55.55,0,0,0-.54-.55Z"/><path class="cls-6" d="M30.73,93.35a.62.62,0,0,0-.63.61h0a.65.65,0,0,0,.65.63h0a.62.62,0,0,0,.6-.63h0a.61.61,0,0,0-.61-.62h0"/><path class="cls-7" d="M30.75,94.68A.71.71,0,0,1,30,94h0a.71.71,0,0,1,1.42,0,.7.7,0,0,1-.69.71Zm0-1.25a.55.55,0,0,0-.54.55.54.54,0,0,0,1.08,0,.55.55,0,0,0-.54-.55Z"/><path class="cls-6" d="M41.06,93.35a.62.62,0,1,0,.65.62.61.61,0,0,0-.65-.62h0"/><path class="cls-7" d="M41.06,94.68a.71.71,0,1,1,.71-.71h0A.71.71,0,0,1,41.06,94.68Zm0-1.25a.55.55,0,0,0-.55.55.55.55,0,0,0,.55.54A.54.54,0,0,0,41.6,94,.55.55,0,0,0,41.06,93.43Z"/><path class="cls-6" d="M32.69,91.44A4,4,0,0,0,36,93,3.71,3.71,0,0,0,39,91.44,4.18,4.18,0,0,0,33.13,91a5.66,5.66,0,0,0-.43.42"/><path class="cls-3" d="M33.31,91.44a3.92,3.92,0,0,1,2.53-1,3.64,3.64,0,0,1,2.5,1,3.18,3.18,0,0,1-2.52,1.08,3.47,3.47,0,0,1-2.51-1.08"/><path class="cls-6" d="M34.38,91.24a2.62,2.62,0,0,0,2.94,0,3.56,3.56,0,0,0-1.5-.36,2.9,2.9,0,0,0-1.44.36"/><rect class="cls-3" x="29.17" y="86.84" width="13.52" height="0.46"/><path class="cls-7" d="M42.72,87.33H29.14v-.54H42.72Zm-13.51-.06H42.67v-.4H29.21Z"/><path class="cls-6" d="M31.25,86.25v1.32a.54.54,0,0,0,.54.54.5.5,0,0,0,.55-.43V86.27c0-.49-.21-.79-.55-.79a.76.76,0,0,0-.25.06l-.14.08a.52.52,0,0,0-.13.17.7.7,0,0,0-.08.23"/><path class="cls-6" d="M35.32,87.31v.26a.54.54,0,0,0,.54.54.5.5,0,0,0,.55-.43V86.27c0-.49-.21-.8-.55-.8s-.61.31-.61.78"/><path class="cls-6" d="M39.26,86.25v1.32a.54.54,0,0,0,.54.54.5.5,0,0,0,.57-.43h0V86.27c0-.49-.2-.79-.54-.79a.71.71,0,0,0-.25.06l-.15.08a.66.66,0,0,0-.12.17.7.7,0,0,0-.08.23"/><rect class="cls-6" x="30.96" y="97.16" width="1.23" height="1.59"/><rect class="cls-6" x="30.96" y="99.11" width="1.23" height="0.5"/><rect class="cls-6" x="39.34" y="97.16" width="1.23" height="1.59"/><rect class="cls-6" x="39.34" y="99.11" width="1.23" height="0.5"/><path class="cls-4" d="M287.41,60.55h-4L272.78,88.14H278l2.58-6.88h9.78L293,88.14h5.43ZM282,77.18l2-5.43c.75-2.13,1.17-3.34,1.42-4.29h.08c.25.91.63,2.17,1.38,4.25l1.92,5.43Z"/><path class="cls-4" d="M340.31,67.93c-5.63,0-8.88,4.46-8.88,10.38,0,5.33,2.92,10.25,10.09,10.25a13.23,13.23,0,0,0,7-1.84L347,83.3a9.85,9.85,0,0,1-5,1.34c-3.29,0-5.46-2-5.58-5h12.63V78.47c0-6.52-3.2-10.55-8.75-10.55m-3.92,8.24c0-2.37,1.37-4.46,3.83-4.46,2.63,0,3.75,2.2,3.81,4.46Z"/><path class="cls-4" d="M426.36,67.93c-5.63,0-8.87,4.46-8.87,10.38,0,5.33,2.91,10.25,10.09,10.25a13.14,13.14,0,0,0,7-1.84l-1.5-3.42a9.82,9.82,0,0,1-5,1.34c-3.32,0-5.49-2-5.61-5H435.1V78.47c0-6.52-3.22-10.55-8.76-10.55m-3.89,8.24c0-2.37,1.37-4.46,3.83-4.46,2.63,0,3.75,2.2,3.81,4.46Z"/><path class="cls-4" d="M466.07,62.38l-5,1.46v4.59h-3.55V72.3h3.55v11c0,3.29,2.13,5.29,5.63,5.29A11.42,11.42,0,0,0,472.5,87L471,83.61a5.64,5.64,0,0,1-3,1c-1.29,0-1.92-.67-1.92-2.51V72.28h1.84a3.11,3.11,0,0,0,3.17-1.73l1-2,0-.08,0-.08h-5.78v0h-.22Z"/><path class="cls-4" d="M322.62,67.92c-4.62,0-7.46,2.46-7.46,6,0,6.58,9.24,5.34,9.24,8.69,0,1.5-1.46,2.09-3.46,2.09a10.08,10.08,0,0,1-5.38-1.63l-.22.54-.87,3.3a14.21,14.21,0,0,0,6.81,1.67c4.25,0,8-1.79,8-6.13,0-6.88-9.23-5.67-9.23-8.79,0-1.29,1.12-1.79,2.79-1.79a13.09,13.09,0,0,1,4.67.89l.93-3.54v-.32a17.46,17.46,0,0,0-5.82-1"/><path class="cls-4" d="M358.91,67.92c-4.63,0-7.46,2.46-7.46,6,0,6.58,9.23,5.34,9.23,8.69,0,1.5-1.46,2.09-3.46,2.09A10,10,0,0,1,352,83.17L351,87a14.44,14.44,0,0,0,6.52,1.51c4.25,0,8-1.79,8-6.13,0-6.88-9.23-5.66-9.23-8.79,0-1.29,1.12-1.79,2.79-1.79a13.35,13.35,0,0,1,4.63.88l.95-3.61v-.2a17.29,17.29,0,0,0-5.79-1"/><path class="cls-4" d="M375.37,67.92c-4.62,0-7.46,2.46-7.46,6,0,6.58,9.24,5.34,9.24,8.69,0,1.5-1.46,2.09-3.46,2.09a10,10,0,0,1-5.24-1.54l-1,3.89A14.35,14.35,0,0,0,374,88.57c4.25,0,8-1.79,8-6.13,0-6.88-9.23-5.67-9.23-8.79,0-1.29,1.12-1.79,2.79-1.79a13.28,13.28,0,0,1,4.62.87l1-3.75V68.9a17,17,0,0,0-5.79-1"/><path class="cls-4" d="M306.23,67.92c-4.62,0-7.46,2.46-7.46,6,0,6.58,9.24,5.34,9.24,8.69,0,1.5-1.46,2.09-3.46,2.09a10,10,0,0,1-5.37-1.63h0l1.89,5a15.25,15.25,0,0,0,3.81.49c4.24,0,8-1.79,8-6.13,0-6.88-9.24-5.67-9.24-8.79,0-1.29,1.13-1.79,2.8-1.79a13.07,13.07,0,0,1,4.62.88l1-3.68V68.9a17,17,0,0,0-5.79-1"/><path class="cls-4" d="M384.71,67.57l-.1.05V88.14h5V74.22a7.92,7.92,0,0,1,4.71-2c2.55,0,2.92,1.92,2.92,4.21V88.14h5V75l0-.75a7.69,7.69,0,0,1,4.67-2c2.54,0,3,1.84,3,4.17V88.14h5V75.07c0-5.21-3.09-7.13-6.52-7.13a11.27,11.27,0,0,0-7.06,3,5.53,5.53,0,0,0-5.26-3,11,11,0,0,0-6.63,2.72h-.18a3.78,3.78,0,0,0-1.77-1.74l-2.52-1.26Z"/><path class="cls-4" d="M438,67.57l-.09.05V88.14h5V74.34a8.11,8.11,0,0,1,4.83-2.08c2.55,0,3.05,2,3.05,4.35V88.14h5V75.07c0-5.63-3.21-7.16-6.34-7.16a11,11,0,0,0-6.75,2.71h-.27a3.76,3.76,0,0,0-1.76-1.74l-2.53-1.26Z"/><path class="cls-4" d="M95.2,60.23c-8.84,0-14.51,6.34-14.51,14.3s4.89,13.84,13.89,13.84a17.65,17.65,0,0,0,8.48-2.05,7.62,7.62,0,0,1-1.15-4.07,13.09,13.09,0,0,1-6.75,1.91c-5.63,0-9.13-4-9.13-9.78,0-5.38,3.21-10,9.3-10a14.78,14.78,0,0,1,7.06,1.79V61.57a18.36,18.36,0,0,0-7.21-1.34"/><path class="cls-4" d="M162.92,58.23H158V86.78a14.11,14.11,0,0,0,6.46,1.38c6.71,0,11.79-4,11.79-10.92,0-6.26-4.21-9.72-9.46-9.72a13.07,13.07,0,0,0-3.83.58ZM165.21,84a7.74,7.74,0,0,1-2.29-.33V72.29a7.06,7.06,0,0,1,3-.63c3.26,0,5.17,2.42,5.17,5.88,0,3.87-2.3,6.52-5.88,6.52"/><path class="cls-4" d="M221.08,58.44h-5V68a14.92,14.92,0,0,0-2.67-.27c-6.26,0-10.8,4.29-10.8,10.54,0,6.52,4.79,10.09,11.22,10.09a17.74,17.74,0,0,0,7.25-1.46Zm-7.34,25.8c-3.58,0-6-2.2-6-6,0-4,2.55-6.38,6-6.38a9.58,9.58,0,0,1,2.38.3V83.91a7.16,7.16,0,0,1-2.34.33"/><path class="cls-4" d="M252.18,67.74c-5.63,0-8.89,4.46-8.89,10.38,0,5.33,2.92,10.25,10.09,10.25a13.18,13.18,0,0,0,7-1.84l-1.5-3.42a9.82,9.82,0,0,1-5,1.34c-3.29,0-5.46-2-5.58-5h12.63V78.28c0-6.52-3.21-10.54-8.75-10.54M248.26,76c0-2.37,1.37-4.46,3.83-4.46,2.63,0,3.75,2.21,3.81,4.46Z"/><path class="cls-4" d="M112.65,67.74a15.43,15.43,0,0,0-7.6,2l1.63,3.21a11.08,11.08,0,0,1,5.12-1.38c2.29,0,3.8,1,3.8,3.29v.63l-3.38.12a12.17,12.17,0,0,0-5.07,1.13,5.64,5.64,0,0,0-3.34,5.38c0,3.8,2.8,6.29,6.52,6.29A8.15,8.15,0,0,0,116,86.08h.42a4.31,4.31,0,0,0,1.36,1.08l2.6,1.3.1.06.1-.06V76.83h0V74.9c0-4.75-2.62-7.16-7.92-7.16m-.82,16.71a2.61,2.61,0,0,1-2.92-2.72,2.35,2.35,0,0,1,1.21-2.24,6.13,6.13,0,0,1,2.85-.61l2.56-.08v4.29a6.1,6.1,0,0,1-3.7,1.36"/><path class="cls-4" d="M124.3,67.31l-.1,0V87.87h5V74a7.85,7.85,0,0,1,4.71-2c2.54,0,2.92,1.91,2.92,4.21V87.87h5V74.7l0-.75a7.67,7.67,0,0,1,4.66-2c2.55,0,3,1.83,3,4.16V87.87h5V74.79c0-5.22-3.08-7.13-6.52-7.13a11.25,11.25,0,0,0-7.06,3,5.51,5.51,0,0,0-5.25-3,10.93,10.93,0,0,0-6.63,2.71h-.19A3.76,3.76,0,0,0,127,68.63l-2.52-1.26Z"/><path class="cls-4" d="M189.3,67.84a7.31,7.31,0,0,0-5.43,2.61l-.54-2.21h-4.21V88h4.95V74c1.52-1.87,3-2.43,4.28-2.43a5,5,0,0,1,3.05,1.14V68.21a6.16,6.16,0,0,0-2.13-.37"/><path class="cls-4" d="M196.91,59.07A3,3,0,0,0,193.85,62v.12a2.93,2.93,0,0,0,2.91,3h.13a3,3,0,1,0,0-6m2.5,9.17h-5V88h5Z"/><path class="cls-4" d="M243.12,67H232.37c-5.37,0-8.05,3.63-8.05,7.25a6.89,6.89,0,0,0,3.3,6.13,4.81,4.81,0,0,0-2.38,3.71,2.78,2.78,0,0,0,1.3,2.46A5.32,5.32,0,0,0,223,91.29c0,3.41,3.38,5.79,9.17,5.79,6.83,0,10.42-2.92,10.42-6.52,0-7.38-13-4.09-13-7.61a2.67,2.67,0,0,1,.5-1.46,8.21,8.21,0,0,0,2.41.34c4.8,0,8.15-2.88,8.15-7.3a6.72,6.72,0,0,0-1.39-4.18h.57v0a2.66,2.66,0,0,0,2.38-1.5l.86-1.71,0-.06ZM232.5,78.07A3.43,3.43,0,0,1,229,74.4a3.31,3.31,0,0,1,3.42-3.66A3.52,3.52,0,0,1,236,74.45a3.31,3.31,0,0,1-3.49,3.62m.33,15.51c-3.3,0-5.38-1.21-5.38-3.17A3.33,3.33,0,0,1,229,87.83c2.67,1,8.8.46,8.8,3.29,0,1.47-2,2.47-5,2.47"/><path class="cls-4" d="M81.92,101.32H95.76l-1.13,3.16h-9v8.69h8.91v3.16H85.59v9.24H95.91v3.15h-14Z"/><path class="cls-4" d="M100.09,109.05h3.08l.48,2.43a10.8,10.8,0,0,1,6.81-2.91c3.12,0,6,1.83,6,7v13.17h-3.66v-12c0-2.78-.66-4.94-3.36-4.94-2,0-3.91,1.16-5.66,2.65v14.25h-3.65Z"/><path class="cls-4" d="M118.91,132.86c0-2,1.25-3.86,3.62-4.94a2.76,2.76,0,0,1-1.37-2.45,5,5,0,0,1,2.2-3.8,6.87,6.87,0,0,1-3.16-6c0-3.86,2.91-7.06,7.48-7.06a8.91,8.91,0,0,1,3.81.74c.2.13.29.13.45,0a5.7,5.7,0,0,1,4.28-1.63,7,7,0,0,1,1.21.13l-.83,2.71a6.13,6.13,0,0,0-1.21-.12,3.23,3.23,0,0,0-1.74.45,7,7,0,0,1,2.06,4.95c0,4.29-3.16,7.15-7.77,7.15a7.86,7.86,0,0,1-2.5-.38,3,3,0,0,0-.91,2c0,3.8,13,.37,13,7.73,0,3.65-3.58,6.23-9.78,6.23C122.32,138.56,118.91,136.4,118.91,132.86Zm14.92-.16c0-3.37-5.9-2.72-9.23-3.81-.92.58-2.33,1.63-2.33,3.33,0,2.24,2.33,3.57,5.78,3.57,3.8,0,5.78-1.35,5.78-3.09Zm-1.78-16.92a4.05,4.05,0,0,0-4.16-4.28,3.91,3.91,0,0,0-4.14,4.24,4,4,0,0,0,4.16,4.34,3.93,3.93,0,0,0,4.11-4.29Z"/><path class="cls-4" d="M140.23,99.29h3.63v24.52c0,1.49.45,2,1.45,2a4.78,4.78,0,0,0,1.25-.25l.75,2.87a8.76,8.76,0,0,1-3,.58c-2.72,0-4.07-1.5-4.07-4.12Z"/><path class="cls-4" d="M149.66,102.65a2.37,2.37,0,1,1,2.4,2.37H152a2.28,2.28,0,0,1-2.35-2.21v-.16Zm.5,6.4h3.66v19.66h-3.66Z"/><path class="cls-4" d="M158.14,124.64a9.77,9.77,0,0,0,5.07,1.49c2.2,0,4-.79,4-2.82,0-4-9.24-2.66-9.24-9.19,0-3.11,2.45-5.57,6.9-5.57a14.88,14.88,0,0,1,5.15,1v3.16a12,12,0,0,0-5-1.12c-1.83,0-3.45.54-3.45,2.41,0,4,9.24,2.58,9.24,9.31,0,4-3.41,5.86-7.49,5.86a12.12,12.12,0,0,1-6.35-1.75Z"/><path class="cls-4" d="M174.29,99.29h3.65v12.13a10.4,10.4,0,0,1,6.69-2.87c3.08,0,6,1.84,6,7v13.17H187v-12c0-2.78-.7-4.94-3.41-4.94-2,0-3.9,1.16-5.6,2.66v14.25h-3.66Z"/></svg>