<svg id="Layer_1" data-name="Layer 1" xmlns="http://www.w3.org/2000/svg" viewBox="0 0 477 174.62"><defs><style>.cls-1,.cls-2{fill:#ed0000;}.cls-2{fill-rule:evenodd;}</style></defs><title>logo</title><rect class="cls-1" x="10.33" y="19.53" width="34.25" height="133.05"/><polygon class="cls-2" points="58.4 19.53 58.4 152.58 161.34 152.58 161.34 124.33 92.64 124.33 92.64 97.92 161.34 97.92 161.34 70.95 92.64 70.95 92.64 46.51 161.34 46.51 161.34 19.53 58.4 19.53"/><polygon class="cls-2" points="175.16 19.53 175.16 152.58 272.64 152.58 272.64 123.19 209.4 123.19 209.4 19.53 175.16 19.53"/><polygon class="cls-2" points="284.09 46.51 284.09 152.58 318.33 152.58 318.33 46.51 356.91 46.51 356.91 19.53 245.51 19.53 245.51 46.51 284.09 46.51"/><path class="cls-2" d="M364.61,40.82c-4.59,10.82-5.67,22.47.16,33.08,4.47,8.11,14.92,16.87,23.68,19.86,10.17,3.47,20.58,6.69,30.84,10,6.79,2.14,18.69,4.32,19.58,13.06,1.05,10.27-9.76,13.38-17.86,14.19-17,1.68-29.31-3.63-29.34-22.43l-33.38-.11a69.89,69.89,0,0,0,3.46,18.92c8.24,23.17,29.1,30,51.84,29.33,24.29-.69,53.3-7,57.88-35.26,3.14-21.21-7.82-35.13-26.74-43l-31.35-11c-3.78-1.33-8.27-2.71-11.9-4.25-4.06-1.8-7.1-4.73-7.28-9.4-.35-9.11,8.41-11.61,15.81-12,13.23-.76,24.65,2.78,24.56,18h32.24c.19-19.41-7.61-33.36-26.26-40.19-8.41-3.08-20.88-4.87-29.77-4.52C391.32,15.84,373,21.67,364.61,40.82Z"/></svg>