<svg id="Layer_1" data-name="Layer 1" xmlns="http://www.w3.org/2000/svg" viewBox="0 0 477 174.62"><defs><style>.cls-1,.cls-2{fill:#fe6c1c;}.cls-1{fill-rule:evenodd;}</style></defs><title>logo</title><path class="cls-1" d="M148.67,143.24v28.62l20.84.1.06-164.5h-20.9V31.11l-8.06-7.83a105.07,105.07,0,0,0-9.38-7C73-20.68,0,21,0,87.27c0,20.69,8.15,40.67,19.4,54L31.88,153.4C63,177.49,103.74,178.26,135.65,155a91.11,91.11,0,0,0,10.92-9.57Zm-1.5-43.05c-.21,6.53-6.14,17.79-9,22.21-1.66,2.55-5.16,7.19-7.14,8.79-1.67,1.34-2.77,3.36-8.15,7.33C95.14,159,56,153.47,34.71,126.89a65.07,65.07,0,0,1-13.2-48.25,64.41,64.41,0,0,1,8-23.43c3.54-6.19,4.88-7.28,8.64-11.4l5.74-5.65a78.91,78.91,0,0,1,9.42-6.52c20.11-11.09,41.56-10.88,62.08-.46,7.1,3.61,8.88,6,13.35,9.88,1.59,1.4,2.29,2.43,3.87,3.87,9.55,8.66,18.38,33.46,15.82,46.27H44.61a41.79,41.79,0,0,0,4,14,43.93,43.93,0,0,0,9.72,12.6c13.08,12.48,38.9,13.92,54.61-1.92,7.21-7.27,5-5.79,10.18-15.7Z"/><path class="cls-1" d="M123.2,75.1c-1.29-6.79-8-15.32-13.44-19.62-14.75-11.76-34.32-11.23-49.9,0C54.61,59.27,47.34,69,46.4,75.22Z"/><path class="cls-2" d="M227.88,55.81a6.44,6.44,0,0,0-2.26-5.27c-1.5-1.23-4.2-2.55-8.09-3.93q-12.21-3.86-18.09-8.25t-5.88-12.71q0-8.1,7-13.1t17.8-5q10.71,0,17.54,5.5a16.83,16.83,0,0,1,6.61,14.18l-.09.26H227.92a8.11,8.11,0,0,0-2.61-6.25,10.2,10.2,0,0,0-7.2-2.42,11.27,11.27,0,0,0-7.08,2,6,6,0,0,0-2.57,4.9,5.23,5.23,0,0,0,2.59,4.54,52.45,52.45,0,0,0,9.71,4.27q11,3.27,16.52,8t5.55,13.14A15.51,15.51,0,0,1,236.21,69q-6.6,4.8-17.53,4.8a32.64,32.64,0,0,1-19-5.51q-8-5.51-7.79-15.85l.09-.27h14.55c0,3.71,1,6.37,3,8s5,2.39,9.11,2.39c3.1,0,5.4-.62,6.92-1.86A6,6,0,0,0,227.88,55.81Z"/><path class="cls-2" d="M267.77,13.13V25h8.09V35.37h-8.09V57.31a5.37,5.37,0,0,0,1,3.69,3.64,3.64,0,0,0,2.81,1.13,21.58,21.58,0,0,0,2.23-.09c.55-.06,1.25-.17,2.1-.35l1.06,11a41,41,0,0,1-4.46.82,39.61,39.61,0,0,1-4.69.25q-7.39,0-11.19-3.94t-3.8-12.47v-22h-6.73V25h6.73V13.13Z"/><path class="cls-2" d="M311.59,67.22A15.64,15.64,0,0,1,306,72.1a16.32,16.32,0,0,1-7.54,1.71q-7.44,0-11.66-4.78t-4.22-14.82V25h14.9V54.3c0,2.69.51,4.69,1.53,6a5.19,5.19,0,0,0,4.36,2,12,12,0,0,0,4.2-.67,8,8,0,0,0,3.09-2V25h14.95V72.88H312.52Z"/><path class="cls-2" d="M331.81,49q0-11.19,4.88-18t13.78-6.86a11.84,11.84,0,0,1,6,1.53,15.93,15.93,0,0,1,4.8,4.35V3.89h14.95v69h-13L362.19,67A16.29,16.29,0,0,1,357,72.06a12.86,12.86,0,0,1-6.66,1.75q-8.85,0-13.71-6.55T331.81,50Zm14.94.93q0,5.84,1.71,9.09a6,6,0,0,0,5.72,3.25,9.51,9.51,0,0,0,4.14-.86,7.52,7.52,0,0,0,2.94-2.55V39.58a8.17,8.17,0,0,0-2.92-2.92,8,8,0,0,0-4.07-1,6,6,0,0,0-5.75,3.67A22.59,22.59,0,0,0,346.75,49Z"/><path class="cls-2" d="M403.23,51.78l0,.36h.27L411.45,25h15.92L408.31,80a26.23,26.23,0,0,1-5.7,8.75q-3.5,3.45-11.1,3.45a17.35,17.35,0,0,1-3.19-.24c-.82-.16-2.12-.46-3.89-.9l1.82-10.62.92.2a4.32,4.32,0,0,0,.8.07,9.82,9.82,0,0,0,5.17-1,6.15,6.15,0,0,0,2.44-3.14l1.19-3.11L380.23,25h15.88Z"/><path class="cls-2" d="M227.92,157h-20.3L204,169.5H189l20.79-64.39H225.8l20.83,64.39h-15Zm-17-11.5h13.67l-6.73-23h-.26Z"/><path class="cls-2" d="M294.7,146.59q0,10.92-4.69,17.38t-13.88,6.46a13.33,13.33,0,0,1-6.86-1.71,14.68,14.68,0,0,1-4.95-4.88l-1,5.66h-13v-69h14.95v25.78A14.29,14.29,0,0,1,270,122.2a12.45,12.45,0,0,1,6.08-1.44q9.24,0,13.95,6.77t4.71,18.13Zm-14.9-.93c0-4.24-.53-7.54-1.59-9.88s-3-3.52-5.93-3.52a8.92,8.92,0,0,0-4.18.91,6.72,6.72,0,0,0-2.76,2.63v20.08a6.37,6.37,0,0,0,2.78,2.3,10.67,10.67,0,0,0,4.25.75q4.42,0,5.92-3.08t1.51-9.26Z"/><path class="cls-2" d="M328.31,134.83l-5.44-.05a9,9,0,0,0-4.2.86,5.55,5.55,0,0,0-2.43,2.46v31.4H301.29V121.65h14.06l.53,7a14.52,14.52,0,0,1,4-5.84,8.8,8.8,0,0,1,5.8-2.08,14.7,14.7,0,0,1,2.17.16,18.22,18.22,0,0,1,1.94.37Z"/><path class="cls-2" d="M331.89,145.13q0-10.78,6.11-17.58t17-6.79q11,0,17.07,6.79t6.11,17.58v.93q0,10.83-6.11,17.6t-17,6.77q-11,0-17.11-6.77t-6.11-17.6Zm14.95.93q0,6,1.88,9.44t6.39,3.43a6.61,6.61,0,0,0,6.28-3.45q1.91-3.45,1.9-9.42v-.93a19.64,19.64,0,0,0-1.9-9.35,6.66,6.66,0,0,0-6.37-3.52,6.57,6.57,0,0,0-6.3,3.54,20,20,0,0,0-1.88,9.33Z"/><path class="cls-2" d="M412.29,169.45a17.9,17.9,0,0,1-1.12-2.56,27.41,27.41,0,0,1-.87-2.92,16.2,16.2,0,0,1-5.13,4.71,14.31,14.31,0,0,1-7.29,1.75,15.67,15.67,0,0,1-11.08-3.94A13.55,13.55,0,0,1,382.53,156a12.78,12.78,0,0,1,5.33-11q5.33-3.87,16.21-3.87h5.44v-3.41a6.86,6.86,0,0,0-1.44-4.68,5.62,5.62,0,0,0-4.44-1.64,5.34,5.34,0,0,0-3.83,1.22,5,5,0,0,0-1.26,3.78l-14.46,0-.09-.26q-.32-6.54,5.44-11t15.21-4.4q8.85,0,14.35,4.43t5.51,12.64v18a35.3,35.3,0,0,0,2.56,13.62Zm-9.86-9.68a9.33,9.33,0,0,0,4.07-.89,8.47,8.47,0,0,0,3-2.3v-7.47H404.2c-2.36,0-4.07.58-5.15,1.72a6.14,6.14,0,0,0-1.62,4.38,4.24,4.24,0,0,0,1.4,3.3A5.17,5.17,0,0,0,402.43,159.77Z"/><path class="cls-2" d="M430.82,145.66q0-11.19,4.89-18t13.78-6.86a11.87,11.87,0,0,1,6,1.53,15.93,15.93,0,0,1,4.8,4.35V100.51h14.94v69h-13l-1.06-5.88a16.21,16.21,0,0,1-5.16,5.06,12.8,12.8,0,0,1-6.65,1.75q-8.85,0-13.71-6.55t-4.87-17.29Zm14.95.93q0,5.83,1.7,9.09a6,6,0,0,0,5.73,3.25,9.54,9.54,0,0,0,4.14-.86,7.52,7.52,0,0,0,2.94-2.55V136.2a8.17,8.17,0,0,0-2.92-2.92,8,8,0,0,0-4.07-1,6,6,0,0,0-5.75,3.67,22.59,22.59,0,0,0-1.77,9.73Z"/></svg>